<?xml version="1.0" encoding="utf-8" standalone="no"?>
<!DOCTYPE svg PUBLIC "-//W3C//DTD SVG 1.1//EN"
  "http://www.w3.org/Graphics/SVG/1.1/DTD/svg11.dtd">
<svg xmlns:xlink="http://www.w3.org/1999/xlink" width="211.76337pt" height="180.042634pt" viewBox="0 0 211.76337 180.042634" xmlns="http://www.w3.org/2000/svg" version="1.1">
 <metadata>
  <rdf:RDF xmlns:dc="http://purl.org/dc/elements/1.1/" xmlns:cc="http://creativecommons.org/ns#" xmlns:rdf="http://www.w3.org/1999/02/22-rdf-syntax-ns#">
   <cc:Work>
    <dc:type rdf:resource="http://purl.org/dc/dcmitype/StillImage"/>
    <dc:date>2024-12-28T15:13:22.102735</dc:date>
    <dc:format>image/svg+xml</dc:format>
    <dc:creator>
     <cc:Agent>
      <dc:title>Matplotlib v3.9.3, https://matplotlib.org/</dc:title>
     </cc:Agent>
    </dc:creator>
   </cc:Work>
  </rdf:RDF>
 </metadata>
 <defs>
  <style type="text/css">*{stroke-linejoin: round; stroke-linecap: butt}</style>
 </defs>
 <g id="figure_1">
  <g id="patch_1">
   <path d="M 0 180.042634 
L 211.76337 180.042634 
L 211.76337 0 
L 0 0 
z
" style="fill: #ffffff"/>
  </g>
  <g id="axes_1">
   <g id="patch_2">
    <path d="M 24.02337 154.684396 
L 208.16337 154.684396 
L 208.16337 16.084396 
L 24.02337 16.084396 
z
" style="fill: #ffffff"/>
   </g>
   <g id="matplotlib.axis_1">
    <g id="xtick_1">
     <g id="line2d_1">
      <path d="M 32.39337 154.684396 
L 32.39337 16.084396 
" clip-path="url(#pcf6136f6f8)" style="fill: none; stroke-dasharray: 1.85,0.8; stroke-dashoffset: 0; stroke: #000000; stroke-opacity: 0.5; stroke-width: 0.5"/>
     </g>
     <g id="line2d_2">
      <defs>
       <path id="mdc607f13bd" d="M 0 0 
L 0 -3 
" style="stroke: #000000; stroke-width: 0.5"/>
      </defs>
      <g>
       <use xlink:href="#mdc607f13bd" x="32.39337" y="154.684396" style="stroke: #000000; stroke-width: 0.5"/>
      </g>
     </g>
     <g id="line2d_3">
      <defs>
       <path id="m8eaefbf1e3" d="M 0 0 
L 0 3 
" style="stroke: #000000; stroke-width: 0.5"/>
      </defs>
      <g>
       <use xlink:href="#m8eaefbf1e3" x="32.39337" y="16.084396" style="stroke: #000000; stroke-width: 0.5"/>
      </g>
     </g>
     <g id="text_1">
      <!-- $\mathdefault{1.4}$ -->
      <g transform="translate(27.304497 163.588052) scale(0.08 -0.08)">
       <defs>
        <path id="NimbusRomNo9L-Regu-31" d="M 1862 4339 
L 710 3757 
L 710 3667 
C 787 3699 858 3725 883 3738 
C 998 3783 1107 3808 1171 3808 
C 1306 3808 1363 3711 1363 3505 
L 1363 592 
C 1363 379 1312 232 1210 173 
C 1114 116 1024 96 755 96 
L 755 0 
L 2522 0 
L 2522 96 
C 2016 96 1914 160 1914 470 
L 1914 4327 
L 1862 4339 
z
" transform="scale(0.015625)"/>
        <path id="CMMI10-3a" d="M 1229 338 
C 1229 522 1075 675 890 675 
C 704 675 550 522 550 338 
C 550 153 704 0 890 0 
C 1075 0 1229 153 1229 338 
z
" transform="scale(0.015625)"/>
        <path id="NimbusRomNo9L-Regu-34" d="M 3021 1497 
L 2368 1497 
L 2368 4352 
L 2086 4352 
L 77 1497 
L 77 1088 
L 1875 1088 
L 1875 32 
L 2368 32 
L 2368 1088 
L 3021 1088 
L 3021 1497 
z
M 1869 1497 
L 333 1497 
L 1869 3698 
L 1869 1497 
z
" transform="scale(0.015625)"/>
       </defs>
       <use xlink:href="#NimbusRomNo9L-Regu-31" transform="scale(0.996264)"/>
       <use xlink:href="#CMMI10-3a" transform="translate(49.8132 0) scale(0.996264)"/>
       <use xlink:href="#NimbusRomNo9L-Regu-34" transform="translate(77.408707 0) scale(0.996264)"/>
      </g>
     </g>
    </g>
    <g id="xtick_2">
     <g id="line2d_4">
      <path d="M 74.24337 154.684396 
L 74.24337 16.084396 
" clip-path="url(#pcf6136f6f8)" style="fill: none; stroke-dasharray: 1.85,0.8; stroke-dashoffset: 0; stroke: #000000; stroke-opacity: 0.5; stroke-width: 0.5"/>
     </g>
     <g id="line2d_5">
      <g>
       <use xlink:href="#mdc607f13bd" x="74.24337" y="154.684396" style="stroke: #000000; stroke-width: 0.5"/>
      </g>
     </g>
     <g id="line2d_6">
      <g>
       <use xlink:href="#m8eaefbf1e3" x="74.24337" y="16.084396" style="stroke: #000000; stroke-width: 0.5"/>
      </g>
     </g>
     <g id="text_2">
      <!-- $\mathdefault{1.5}$ -->
      <g transform="translate(69.154497 163.588052) scale(0.08 -0.08)">
       <defs>
        <path id="NimbusRomNo9L-Regu-35" d="M 1158 3776 
L 2413 3776 
C 2515 3776 2541 3789 2560 3834 
L 2803 4403 
L 2746 4448 
C 2650 4314 2586 4282 2451 4282 
L 1114 4282 
L 416 2759 
C 410 2746 410 2740 410 2727 
C 410 2695 435 2676 486 2676 
C 691 2676 947 2631 1210 2547 
C 1946 2309 2285 1910 2285 1274 
C 2285 656 1894 173 1395 173 
C 1267 173 1158 218 966 360 
C 762 508 614 572 480 572 
C 294 572 205 495 205 334 
C 205 90 506 -64 986 -64 
C 1523 -64 1984 110 2304 438 
C 2598 728 2733 1094 2733 1583 
C 2733 2046 2611 2342 2291 2663 
C 2010 2947 1645 3094 890 3229 
L 1158 3776 
z
" transform="scale(0.015625)"/>
       </defs>
       <use xlink:href="#NimbusRomNo9L-Regu-31" transform="scale(0.996264)"/>
       <use xlink:href="#CMMI10-3a" transform="translate(49.8132 0) scale(0.996264)"/>
       <use xlink:href="#NimbusRomNo9L-Regu-35" transform="translate(77.408707 0) scale(0.996264)"/>
      </g>
     </g>
    </g>
    <g id="xtick_3">
     <g id="line2d_7">
      <path d="M 116.09337 154.684396 
L 116.09337 16.084396 
" clip-path="url(#pcf6136f6f8)" style="fill: none; stroke-dasharray: 1.85,0.8; stroke-dashoffset: 0; stroke: #000000; stroke-opacity: 0.5; stroke-width: 0.5"/>
     </g>
     <g id="line2d_8">
      <g>
       <use xlink:href="#mdc607f13bd" x="116.09337" y="154.684396" style="stroke: #000000; stroke-width: 0.5"/>
      </g>
     </g>
     <g id="line2d_9">
      <g>
       <use xlink:href="#m8eaefbf1e3" x="116.09337" y="16.084396" style="stroke: #000000; stroke-width: 0.5"/>
      </g>
     </g>
     <g id="text_3">
      <!-- $\mathdefault{1.6}$ -->
      <g transform="translate(111.004497 163.588052) scale(0.08 -0.08)">
       <defs>
        <path id="NimbusRomNo9L-Regu-36" d="M 2854 4391 
C 2125 4327 1754 4205 1286 3879 
C 595 3386 218 2656 218 1802 
C 218 1248 390 688 666 370 
C 909 89 1254 -64 1651 -64 
C 2445 -64 2995 541 2995 1421 
C 2995 2236 2528 2752 1792 2752 
C 1510 2752 1376 2707 973 2464 
C 1146 3431 1862 4122 2867 4288 
L 2854 4391 
z
M 1549 2458 
C 2099 2458 2419 2000 2419 1204 
C 2419 504 2170 116 1722 116 
C 1158 116 813 714 813 1700 
C 813 2025 864 2203 992 2299 
C 1126 2400 1325 2458 1549 2458 
z
" transform="scale(0.015625)"/>
       </defs>
       <use xlink:href="#NimbusRomNo9L-Regu-31" transform="scale(0.996264)"/>
       <use xlink:href="#CMMI10-3a" transform="translate(49.8132 0) scale(0.996264)"/>
       <use xlink:href="#NimbusRomNo9L-Regu-36" transform="translate(77.408707 0) scale(0.996264)"/>
      </g>
     </g>
    </g>
    <g id="xtick_4">
     <g id="line2d_10">
      <path d="M 157.94337 154.684396 
L 157.94337 16.084396 
" clip-path="url(#pcf6136f6f8)" style="fill: none; stroke-dasharray: 1.85,0.8; stroke-dashoffset: 0; stroke: #000000; stroke-opacity: 0.5; stroke-width: 0.5"/>
     </g>
     <g id="line2d_11">
      <g>
       <use xlink:href="#mdc607f13bd" x="157.94337" y="154.684396" style="stroke: #000000; stroke-width: 0.5"/>
      </g>
     </g>
     <g id="line2d_12">
      <g>
       <use xlink:href="#m8eaefbf1e3" x="157.94337" y="16.084396" style="stroke: #000000; stroke-width: 0.5"/>
      </g>
     </g>
     <g id="text_4">
      <!-- $\mathdefault{1.7}$ -->
      <g transform="translate(152.854497 163.588052) scale(0.08 -0.08)">
       <defs>
        <path id="NimbusRomNo9L-Regu-37" d="M 2874 4250 
L 506 4250 
L 128 3310 
L 237 3258 
C 512 3693 627 3776 979 3776 
L 2368 3776 
L 1101 -32 
L 1517 -32 
L 2874 4148 
L 2874 4250 
z
" transform="scale(0.015625)"/>
       </defs>
       <use xlink:href="#NimbusRomNo9L-Regu-31" transform="scale(0.996264)"/>
       <use xlink:href="#CMMI10-3a" transform="translate(49.8132 0) scale(0.996264)"/>
       <use xlink:href="#NimbusRomNo9L-Regu-37" transform="translate(77.408707 0) scale(0.996264)"/>
      </g>
     </g>
    </g>
    <g id="xtick_5">
     <g id="line2d_13">
      <path d="M 199.79337 154.684396 
L 199.79337 16.084396 
" clip-path="url(#pcf6136f6f8)" style="fill: none; stroke-dasharray: 1.85,0.8; stroke-dashoffset: 0; stroke: #000000; stroke-opacity: 0.5; stroke-width: 0.5"/>
     </g>
     <g id="line2d_14">
      <g>
       <use xlink:href="#mdc607f13bd" x="199.79337" y="154.684396" style="stroke: #000000; stroke-width: 0.5"/>
      </g>
     </g>
     <g id="line2d_15">
      <g>
       <use xlink:href="#m8eaefbf1e3" x="199.79337" y="16.084396" style="stroke: #000000; stroke-width: 0.5"/>
      </g>
     </g>
     <g id="text_5">
      <!-- $\mathdefault{1.8}$ -->
      <g transform="translate(194.704497 163.588052) scale(0.08 -0.08)">
       <defs>
        <path id="NimbusRomNo9L-Regu-38" d="M 1856 2400 
C 2490 2740 2714 3008 2714 3444 
C 2714 3968 2253 4352 1613 4352 
C 915 4352 397 3924 397 3341 
C 397 2925 518 2740 1190 2151 
C 499 1626 358 1428 358 992 
C 358 372 864 -64 1587 -64 
C 2355 -64 2848 359 2848 1018 
C 2848 1511 2630 1824 1856 2400 
z
M 1741 1741 
C 2208 1408 2362 1178 2362 820 
C 2362 404 2074 116 1658 116 
C 1171 116 845 487 845 1044 
C 845 1453 986 1722 1357 2023 
L 1741 1741 
z
M 1670 2516 
C 1101 2887 870 3181 870 3540 
C 870 3911 1158 4173 1562 4173 
C 1997 4173 2272 3892 2272 3450 
C 2272 3085 2093 2797 1728 2554 
C 1696 2535 1696 2535 1670 2516 
z
" transform="scale(0.015625)"/>
       </defs>
       <use xlink:href="#NimbusRomNo9L-Regu-31" transform="scale(0.996264)"/>
       <use xlink:href="#CMMI10-3a" transform="translate(49.8132 0) scale(0.996264)"/>
       <use xlink:href="#NimbusRomNo9L-Regu-38" transform="translate(77.408707 0) scale(0.996264)"/>
      </g>
     </g>
    </g>
    <g id="xtick_6">
     <g id="line2d_16">
      <defs>
       <path id="m5066d385e8" d="M 0 0 
L 0 -1.5 
" style="stroke: #000000; stroke-width: 0.5"/>
      </defs>
      <g>
       <use xlink:href="#m5066d385e8" x="24.02337" y="154.684396" style="stroke: #000000; stroke-width: 0.5"/>
      </g>
     </g>
     <g id="line2d_17">
      <defs>
       <path id="mdbd8821dbd" d="M 0 0 
L 0 1.5 
" style="stroke: #000000; stroke-width: 0.5"/>
      </defs>
      <g>
       <use xlink:href="#mdbd8821dbd" x="24.02337" y="16.084396" style="stroke: #000000; stroke-width: 0.5"/>
      </g>
     </g>
    </g>
    <g id="xtick_7">
     <g id="line2d_18">
      <g>
       <use xlink:href="#m5066d385e8" x="40.76337" y="154.684396" style="stroke: #000000; stroke-width: 0.5"/>
      </g>
     </g>
     <g id="line2d_19">
      <g>
       <use xlink:href="#mdbd8821dbd" x="40.76337" y="16.084396" style="stroke: #000000; stroke-width: 0.5"/>
      </g>
     </g>
    </g>
    <g id="xtick_8">
     <g id="line2d_20">
      <g>
       <use xlink:href="#m5066d385e8" x="49.13337" y="154.684396" style="stroke: #000000; stroke-width: 0.5"/>
      </g>
     </g>
     <g id="line2d_21">
      <g>
       <use xlink:href="#mdbd8821dbd" x="49.13337" y="16.084396" style="stroke: #000000; stroke-width: 0.5"/>
      </g>
     </g>
    </g>
    <g id="xtick_9">
     <g id="line2d_22">
      <g>
       <use xlink:href="#m5066d385e8" x="57.50337" y="154.684396" style="stroke: #000000; stroke-width: 0.5"/>
      </g>
     </g>
     <g id="line2d_23">
      <g>
       <use xlink:href="#mdbd8821dbd" x="57.50337" y="16.084396" style="stroke: #000000; stroke-width: 0.5"/>
      </g>
     </g>
    </g>
    <g id="xtick_10">
     <g id="line2d_24">
      <g>
       <use xlink:href="#m5066d385e8" x="65.87337" y="154.684396" style="stroke: #000000; stroke-width: 0.5"/>
      </g>
     </g>
     <g id="line2d_25">
      <g>
       <use xlink:href="#mdbd8821dbd" x="65.87337" y="16.084396" style="stroke: #000000; stroke-width: 0.5"/>
      </g>
     </g>
    </g>
    <g id="xtick_11">
     <g id="line2d_26">
      <g>
       <use xlink:href="#m5066d385e8" x="82.61337" y="154.684396" style="stroke: #000000; stroke-width: 0.5"/>
      </g>
     </g>
     <g id="line2d_27">
      <g>
       <use xlink:href="#mdbd8821dbd" x="82.61337" y="16.084396" style="stroke: #000000; stroke-width: 0.5"/>
      </g>
     </g>
    </g>
    <g id="xtick_12">
     <g id="line2d_28">
      <g>
       <use xlink:href="#m5066d385e8" x="90.98337" y="154.684396" style="stroke: #000000; stroke-width: 0.5"/>
      </g>
     </g>
     <g id="line2d_29">
      <g>
       <use xlink:href="#mdbd8821dbd" x="90.98337" y="16.084396" style="stroke: #000000; stroke-width: 0.5"/>
      </g>
     </g>
    </g>
    <g id="xtick_13">
     <g id="line2d_30">
      <g>
       <use xlink:href="#m5066d385e8" x="99.35337" y="154.684396" style="stroke: #000000; stroke-width: 0.5"/>
      </g>
     </g>
     <g id="line2d_31">
      <g>
       <use xlink:href="#mdbd8821dbd" x="99.35337" y="16.084396" style="stroke: #000000; stroke-width: 0.5"/>
      </g>
     </g>
    </g>
    <g id="xtick_14">
     <g id="line2d_32">
      <g>
       <use xlink:href="#m5066d385e8" x="107.72337" y="154.684396" style="stroke: #000000; stroke-width: 0.5"/>
      </g>
     </g>
     <g id="line2d_33">
      <g>
       <use xlink:href="#mdbd8821dbd" x="107.72337" y="16.084396" style="stroke: #000000; stroke-width: 0.5"/>
      </g>
     </g>
    </g>
    <g id="xtick_15">
     <g id="line2d_34">
      <g>
       <use xlink:href="#m5066d385e8" x="124.46337" y="154.684396" style="stroke: #000000; stroke-width: 0.5"/>
      </g>
     </g>
     <g id="line2d_35">
      <g>
       <use xlink:href="#mdbd8821dbd" x="124.46337" y="16.084396" style="stroke: #000000; stroke-width: 0.5"/>
      </g>
     </g>
    </g>
    <g id="xtick_16">
     <g id="line2d_36">
      <g>
       <use xlink:href="#m5066d385e8" x="132.83337" y="154.684396" style="stroke: #000000; stroke-width: 0.5"/>
      </g>
     </g>
     <g id="line2d_37">
      <g>
       <use xlink:href="#mdbd8821dbd" x="132.83337" y="16.084396" style="stroke: #000000; stroke-width: 0.5"/>
      </g>
     </g>
    </g>
    <g id="xtick_17">
     <g id="line2d_38">
      <g>
       <use xlink:href="#m5066d385e8" x="141.20337" y="154.684396" style="stroke: #000000; stroke-width: 0.5"/>
      </g>
     </g>
     <g id="line2d_39">
      <g>
       <use xlink:href="#mdbd8821dbd" x="141.20337" y="16.084396" style="stroke: #000000; stroke-width: 0.5"/>
      </g>
     </g>
    </g>
    <g id="xtick_18">
     <g id="line2d_40">
      <g>
       <use xlink:href="#m5066d385e8" x="149.57337" y="154.684396" style="stroke: #000000; stroke-width: 0.5"/>
      </g>
     </g>
     <g id="line2d_41">
      <g>
       <use xlink:href="#mdbd8821dbd" x="149.57337" y="16.084396" style="stroke: #000000; stroke-width: 0.5"/>
      </g>
     </g>
    </g>
    <g id="xtick_19">
     <g id="line2d_42">
      <g>
       <use xlink:href="#m5066d385e8" x="166.31337" y="154.684396" style="stroke: #000000; stroke-width: 0.5"/>
      </g>
     </g>
     <g id="line2d_43">
      <g>
       <use xlink:href="#mdbd8821dbd" x="166.31337" y="16.084396" style="stroke: #000000; stroke-width: 0.5"/>
      </g>
     </g>
    </g>
    <g id="xtick_20">
     <g id="line2d_44">
      <g>
       <use xlink:href="#m5066d385e8" x="174.68337" y="154.684396" style="stroke: #000000; stroke-width: 0.5"/>
      </g>
     </g>
     <g id="line2d_45">
      <g>
       <use xlink:href="#mdbd8821dbd" x="174.68337" y="16.084396" style="stroke: #000000; stroke-width: 0.5"/>
      </g>
     </g>
    </g>
    <g id="xtick_21">
     <g id="line2d_46">
      <g>
       <use xlink:href="#m5066d385e8" x="183.05337" y="154.684396" style="stroke: #000000; stroke-width: 0.5"/>
      </g>
     </g>
     <g id="line2d_47">
      <g>
       <use xlink:href="#mdbd8821dbd" x="183.05337" y="16.084396" style="stroke: #000000; stroke-width: 0.5"/>
      </g>
     </g>
    </g>
    <g id="xtick_22">
     <g id="line2d_48">
      <g>
       <use xlink:href="#m5066d385e8" x="191.42337" y="154.684396" style="stroke: #000000; stroke-width: 0.5"/>
      </g>
     </g>
     <g id="line2d_49">
      <g>
       <use xlink:href="#mdbd8821dbd" x="191.42337" y="16.084396" style="stroke: #000000; stroke-width: 0.5"/>
      </g>
     </g>
    </g>
    <g id="xtick_23">
     <g id="line2d_50">
      <g>
       <use xlink:href="#m5066d385e8" x="208.16337" y="154.684396" style="stroke: #000000; stroke-width: 0.5"/>
      </g>
     </g>
     <g id="line2d_51">
      <g>
       <use xlink:href="#mdbd8821dbd" x="208.16337" y="16.084396" style="stroke: #000000; stroke-width: 0.5"/>
      </g>
     </g>
    </g>
    <g id="text_6">
     <!-- Carica $q$ [C] -->
     <g transform="translate(96.395447 174.717171) scale(0.08 -0.08)">
      <defs>
       <path id="NimbusRomNo9L-Regu-43" d="M 3968 2906 
L 3910 4352 
L 3776 4352 
C 3738 4218 3635 4141 3507 4141 
C 3450 4141 3354 4160 3258 4199 
C 2944 4301 2624 4352 2323 4352 
C 1798 4352 1267 4154 870 3802 
C 422 3405 179 2810 179 2106 
C 179 1511 371 960 698 596 
C 1082 180 1670 -64 2304 -64 
C 3027 -64 3661 231 4051 749 
L 3936 864 
C 3462 410 3040 218 2509 218 
C 2106 218 1747 346 1472 589 
C 1120 903 922 1479 922 2189 
C 922 3348 1517 4096 2445 4096 
C 2810 4096 3142 3962 3398 3706 
C 3603 3501 3699 3322 3821 2906 
L 3968 2906 
z
" transform="scale(0.015625)"/>
       <path id="NimbusRomNo9L-Regu-61" d="M 2829 423 
C 2720 333 2643 301 2547 301 
C 2400 301 2355 390 2355 672 
L 2355 1920 
C 2355 2253 2323 2438 2227 2592 
C 2086 2822 1811 2944 1434 2944 
C 832 2944 358 2630 358 2227 
C 358 2080 486 1952 634 1952 
C 787 1952 922 2080 922 2221 
C 922 2246 915 2278 909 2323 
C 896 2381 890 2432 890 2477 
C 890 2650 1094 2790 1350 2790 
C 1664 2790 1837 2605 1837 2259 
L 1837 1869 
C 851 1472 742 1421 467 1178 
C 326 1050 237 832 237 621 
C 237 218 518 -64 909 -64 
C 1190 -64 1453 70 1843 403 
C 1875 70 1990 -64 2253 -64 
C 2470 -64 2605 13 2829 256 
L 2829 423 
z
M 1837 783 
C 1837 584 1805 526 1670 449 
C 1517 359 1338 301 1203 301 
C 979 301 800 520 800 796 
L 800 822 
C 800 1201 1062 1433 1837 1715 
L 1837 783 
z
" transform="scale(0.015625)"/>
       <path id="NimbusRomNo9L-Regu-72" d="M 45 2496 
C 134 2515 192 2522 269 2522 
C 429 2522 486 2419 486 2138 
L 486 538 
C 486 218 442 173 32 96 
L 32 0 
L 1568 0 
L 1568 102 
C 1133 102 1024 199 1024 565 
L 1024 2013 
C 1024 2219 1299 2541 1472 2541 
C 1510 2541 1568 2509 1638 2445 
C 1741 2355 1811 2317 1894 2317 
C 2048 2317 2144 2426 2144 2605 
C 2144 2816 2010 2944 1792 2944 
C 1523 2944 1338 2797 1024 2343 
L 1024 2931 
L 992 2944 
C 653 2803 422 2721 45 2599 
L 45 2496 
z
" transform="scale(0.015625)"/>
       <path id="NimbusRomNo9L-Regu-69" d="M 1120 2929 
L 128 2579 
L 128 2484 
L 179 2490 
C 256 2502 339 2509 397 2509 
C 550 2509 608 2406 608 2125 
L 608 640 
C 608 179 544 109 102 109 
L 102 0 
L 1619 0 
L 1619 96 
C 1197 128 1146 191 1146 650 
L 1146 2910 
L 1120 2929 
z
M 819 4352 
C 646 4352 499 4205 499 4026 
C 499 3847 640 3699 819 3699 
C 1005 3699 1152 3840 1152 4026 
C 1152 4205 1005 4352 819 4352 
z
" transform="scale(0.015625)"/>
       <path id="NimbusRomNo9L-Regu-63" d="M 2547 998 
C 2240 550 2010 397 1645 397 
C 1062 397 653 909 653 1645 
C 653 2304 1005 2758 1523 2758 
C 1754 2758 1837 2688 1901 2451 
L 1939 2310 
C 1990 2131 2106 2016 2240 2016 
C 2406 2016 2547 2138 2547 2285 
C 2547 2643 2099 2944 1562 2944 
C 1248 2944 922 2816 659 2586 
C 339 2304 160 1869 160 1363 
C 160 531 666 -64 1376 -64 
C 1664 -64 1920 38 2150 237 
C 2323 390 2445 563 2637 941 
L 2547 998 
z
" transform="scale(0.015625)"/>
       <path id="NimbusRomNo9L-ReguItal-71" d="M 2502 -1165 
L 2394 -1165 
C 2157 -1165 2022 -1101 2029 -980 
C 2029 -960 2035 -936 2042 -910 
L 3091 2721 
L 2624 2721 
L 2528 2426 
C 2426 2716 2298 2816 2035 2816 
C 1190 2816 160 1662 160 710 
C 160 264 410 -18 813 -18 
C 1267 -18 1562 215 2131 1014 
L 1562 -842 
C 1478 -1096 1376 -1146 960 -1178 
L 960 -1280 
L 2502 -1280 
L 2502 -1165 
z
M 2054 2676 
C 2266 2676 2432 2507 2432 2294 
C 2432 1776 1997 888 1562 532 
C 1395 395 1222 320 1069 320 
C 851 320 710 508 710 801 
C 710 1264 1043 1957 1459 2370 
C 1658 2563 1869 2676 2054 2676 
z
" transform="scale(0.015625)"/>
       <path id="NimbusRomNo9L-Regu-5b" d="M 1914 -864 
L 1363 -864 
C 1152 -864 1050 -756 1050 -531 
L 1050 3781 
C 1050 3981 1133 4064 1338 4064 
L 1914 4064 
L 1914 4224 
L 563 4224 
L 563 -1024 
L 1914 -1024 
L 1914 -864 
z
" transform="scale(0.015625)"/>
       <path id="NimbusRomNo9L-Regu-5d" d="M 218 -864 
L 218 -1024 
L 1568 -1024 
L 1568 4224 
L 218 4224 
L 218 4064 
L 768 4064 
C 979 4064 1082 3955 1082 3730 
L 1082 -582 
C 1082 -781 992 -864 794 -864 
L 218 -864 
z
" transform="scale(0.015625)"/>
      </defs>
      <use xlink:href="#NimbusRomNo9L-Regu-43" transform="scale(0.996264)"/>
      <use xlink:href="#NimbusRomNo9L-Regu-61" transform="translate(66.450031 0) scale(0.996264)"/>
      <use xlink:href="#NimbusRomNo9L-Regu-72" transform="translate(110.6836 0) scale(0.996264)"/>
      <use xlink:href="#NimbusRomNo9L-Regu-69" transform="translate(143.85883 0) scale(0.996264)"/>
      <use xlink:href="#NimbusRomNo9L-Regu-63" transform="translate(171.553999 0) scale(0.996264)"/>
      <use xlink:href="#NimbusRomNo9L-Regu-61" transform="translate(215.787568 0) scale(0.996264)"/>
      <use xlink:href="#NimbusRomNo9L-ReguItal-71" transform="translate(284.927737 0) scale(0.996264)"/>
      <use xlink:href="#NimbusRomNo9L-Regu-5b" transform="translate(359.647538 0) scale(0.996264)"/>
      <use xlink:href="#NimbusRomNo9L-Regu-43" transform="translate(392.822767 0) scale(0.996264)"/>
      <use xlink:href="#NimbusRomNo9L-Regu-5d" transform="translate(459.272798 0) scale(0.996264)"/>
     </g>
    </g>
    <g id="text_7">
     <!-- $\times\mathdefault{10^{−19}}\mathdefault{}$ -->
     <g transform="translate(183.378475 174.198019) scale(0.08 -0.08)">
      <defs>
       <path id="CMSY10-2" d="M 2490 1785 
L 1210 3059 
C 1133 3136 1120 3148 1069 3148 
C 1005 3148 941 3091 941 3020 
C 941 2976 954 2963 1024 2892 
L 2304 1606 
L 1024 320 
C 954 249 941 236 941 192 
C 941 121 1005 64 1069 64 
C 1120 64 1133 76 1210 153 
L 2483 1427 
L 3808 102 
C 3821 96 3866 64 3904 64 
C 3981 64 4032 121 4032 192 
C 4032 204 4032 230 4013 262 
C 4006 275 2989 1280 2669 1606 
L 3840 2777 
C 3872 2816 3968 2899 4000 2937 
C 4006 2950 4032 2976 4032 3020 
C 4032 3091 3981 3148 3904 3148 
C 3853 3148 3827 3123 3757 3052 
L 2490 1785 
z
" transform="scale(0.015625)"/>
       <path id="NimbusRomNo9L-Regu-30" d="M 1626 4352 
C 1274 4352 1005 4244 768 4020 
C 397 3661 154 2925 154 2176 
C 154 1479 365 730 666 372 
C 902 90 1229 -64 1600 -64 
C 1926 -64 2202 45 2432 269 
C 2803 621 3046 1364 3046 2138 
C 3046 3450 2464 4352 1626 4352 
z
M 1606 4186 
C 2144 4186 2432 3463 2432 2125 
C 2432 788 2150 103 1600 103 
C 1050 103 768 788 768 2119 
C 768 3476 1056 4186 1606 4186 
z
" transform="scale(0.015625)"/>
       <path id="CMSY10-0" d="M 4218 1472 
C 4326 1472 4442 1472 4442 1600 
C 4442 1728 4326 1728 4218 1728 
L 755 1728 
C 646 1728 531 1728 531 1600 
C 531 1472 646 1472 755 1472 
L 4218 1472 
z
" transform="scale(0.015625)"/>
       <path id="NimbusRomNo9L-Regu-39" d="M 378 -123 
C 1094 -40 1446 82 1882 396 
C 2547 882 2938 1676 2938 2539 
C 2938 3593 2349 4339 1523 4339 
C 762 4339 192 3694 192 2832 
C 192 2053 653 1536 1344 1536 
C 1696 1536 1965 1638 2304 1900 
C 2042 856 1331 172 358 5 
L 378 -123 
z
M 2317 2290 
C 2317 2162 2291 2104 2221 2047 
C 2042 1894 1805 1811 1574 1811 
C 1088 1811 781 2290 781 3050 
C 781 3413 883 3796 1018 3963 
C 1126 4090 1286 4160 1472 4160 
C 2029 4160 2317 3611 2317 2539 
L 2317 2290 
z
" transform="scale(0.015625)"/>
      </defs>
      <use xlink:href="#CMSY10-2" transform="scale(0.996264)"/>
      <use xlink:href="#NimbusRomNo9L-Regu-31" transform="translate(77.408707 0) scale(0.996264)"/>
      <use xlink:href="#NimbusRomNo9L-Regu-30" transform="translate(127.221908 0) scale(0.996264)"/>
      <use xlink:href="#CMSY10-0" transform="translate(177.035108 36.163231) scale(0.737241)"/>
      <use xlink:href="#NimbusRomNo9L-Regu-31" transform="translate(234.317978 36.163231) scale(0.737241)"/>
      <use xlink:href="#NimbusRomNo9L-Regu-39" transform="translate(271.18002 36.163231) scale(0.737241)"/>
     </g>
    </g>
   </g>
   <g id="matplotlib.axis_2">
    <g id="ytick_1">
     <g id="line2d_52">
      <path d="M 24.02337 146.564398 
L 208.16337 146.564398 
" clip-path="url(#pcf6136f6f8)" style="fill: none; stroke-dasharray: 1.85,0.8; stroke-dashoffset: 0; stroke: #000000; stroke-opacity: 0.5; stroke-width: 0.5"/>
     </g>
     <g id="line2d_53">
      <defs>
       <path id="m119a528b19" d="M 0 0 
L 3 0 
" style="stroke: #000000; stroke-width: 0.5"/>
      </defs>
      <g>
       <use xlink:href="#m119a528b19" x="24.02337" y="146.564398" style="stroke: #000000; stroke-width: 0.5"/>
      </g>
     </g>
     <g id="line2d_54">
      <defs>
       <path id="m9e5c23272d" d="M 0 0 
L -3 0 
" style="stroke: #000000; stroke-width: 0.5"/>
      </defs>
      <g>
       <use xlink:href="#m9e5c23272d" x="208.16337" y="146.564398" style="stroke: #000000; stroke-width: 0.5"/>
      </g>
     </g>
     <g id="text_8">
      <!-- $\mathdefault{1}$ -->
      <g transform="translate(16.538314 149.266226) scale(0.08 -0.08)">
       <use xlink:href="#NimbusRomNo9L-Regu-31" transform="scale(0.996264)"/>
      </g>
     </g>
    </g>
    <g id="ytick_2">
     <g id="line2d_55">
      <path d="M 24.02337 127.033498 
L 208.16337 127.033498 
" clip-path="url(#pcf6136f6f8)" style="fill: none; stroke-dasharray: 1.85,0.8; stroke-dashoffset: 0; stroke: #000000; stroke-opacity: 0.5; stroke-width: 0.5"/>
     </g>
     <g id="line2d_56">
      <g>
       <use xlink:href="#m119a528b19" x="24.02337" y="127.033498" style="stroke: #000000; stroke-width: 0.5"/>
      </g>
     </g>
     <g id="line2d_57">
      <g>
       <use xlink:href="#m9e5c23272d" x="208.16337" y="127.033498" style="stroke: #000000; stroke-width: 0.5"/>
      </g>
     </g>
     <g id="text_9">
      <!-- $\mathdefault{2}$ -->
      <g transform="translate(16.538314 129.735326) scale(0.08 -0.08)">
       <defs>
        <path id="NimbusRomNo9L-Regu-32" d="M 3040 875 
L 2957 907 
C 2720 544 2637 486 2349 486 
L 819 486 
L 1894 1609 
C 2464 2202 2714 2687 2714 3185 
C 2714 3823 2195 4313 1530 4313 
C 1178 4313 845 4173 608 3918 
C 403 3700 307 3496 198 3043 
L 333 3011 
C 589 3636 819 3840 1261 3840 
C 1798 3840 2163 3476 2163 2940 
C 2163 2443 1869 1850 1331 1282 
L 192 77 
L 192 0 
L 2688 0 
L 3040 875 
z
" transform="scale(0.015625)"/>
       </defs>
       <use xlink:href="#NimbusRomNo9L-Regu-32" transform="scale(0.996264)"/>
      </g>
     </g>
    </g>
    <g id="ytick_3">
     <g id="line2d_58">
      <path d="M 24.02337 107.502598 
L 208.16337 107.502598 
" clip-path="url(#pcf6136f6f8)" style="fill: none; stroke-dasharray: 1.85,0.8; stroke-dashoffset: 0; stroke: #000000; stroke-opacity: 0.5; stroke-width: 0.5"/>
     </g>
     <g id="line2d_59">
      <g>
       <use xlink:href="#m119a528b19" x="24.02337" y="107.502598" style="stroke: #000000; stroke-width: 0.5"/>
      </g>
     </g>
     <g id="line2d_60">
      <g>
       <use xlink:href="#m9e5c23272d" x="208.16337" y="107.502598" style="stroke: #000000; stroke-width: 0.5"/>
      </g>
     </g>
     <g id="text_10">
      <!-- $\mathdefault{3}$ -->
      <g transform="translate(16.538314 110.204426) scale(0.08 -0.08)">
       <defs>
        <path id="NimbusRomNo9L-Regu-33" d="M 979 2138 
C 1357 2138 1504 2125 1658 2068 
C 2054 1927 2304 1562 2304 1120 
C 2304 583 1939 167 1466 167 
C 1293 167 1165 212 928 365 
C 736 480 627 525 518 525 
C 371 525 275 436 275 301 
C 275 77 550 -64 998 -64 
C 1491 -64 1997 103 2298 365 
C 2598 628 2765 999 2765 1428 
C 2765 1754 2662 2055 2477 2253 
C 2349 2394 2227 2471 1946 2592 
C 2387 2893 2547 3130 2547 3476 
C 2547 3994 2138 4352 1549 4352 
C 1229 4352 947 4244 717 4039 
C 525 3866 429 3699 288 3315 
L 384 3290 
C 646 3757 934 3968 1338 3968 
C 1754 3968 2042 3687 2042 3284 
C 2042 3053 1946 2823 1786 2663 
C 1594 2471 1414 2375 979 2221 
L 979 2138 
z
" transform="scale(0.015625)"/>
       </defs>
       <use xlink:href="#NimbusRomNo9L-Regu-33" transform="scale(0.996264)"/>
      </g>
     </g>
    </g>
    <g id="ytick_4">
     <g id="line2d_61">
      <path d="M 24.02337 87.971697 
L 208.16337 87.971697 
" clip-path="url(#pcf6136f6f8)" style="fill: none; stroke-dasharray: 1.85,0.8; stroke-dashoffset: 0; stroke: #000000; stroke-opacity: 0.5; stroke-width: 0.5"/>
     </g>
     <g id="line2d_62">
      <g>
       <use xlink:href="#m119a528b19" x="24.02337" y="87.971697" style="stroke: #000000; stroke-width: 0.5"/>
      </g>
     </g>
     <g id="line2d_63">
      <g>
       <use xlink:href="#m9e5c23272d" x="208.16337" y="87.971697" style="stroke: #000000; stroke-width: 0.5"/>
      </g>
     </g>
     <g id="text_11">
      <!-- $\mathdefault{4}$ -->
      <g transform="translate(16.538314 90.673525) scale(0.08 -0.08)">
       <use xlink:href="#NimbusRomNo9L-Regu-34" transform="scale(0.996264)"/>
      </g>
     </g>
    </g>
    <g id="ytick_5">
     <g id="line2d_64">
      <path d="M 24.02337 68.440797 
L 208.16337 68.440797 
" clip-path="url(#pcf6136f6f8)" style="fill: none; stroke-dasharray: 1.85,0.8; stroke-dashoffset: 0; stroke: #000000; stroke-opacity: 0.5; stroke-width: 0.5"/>
     </g>
     <g id="line2d_65">
      <g>
       <use xlink:href="#m119a528b19" x="24.02337" y="68.440797" style="stroke: #000000; stroke-width: 0.5"/>
      </g>
     </g>
     <g id="line2d_66">
      <g>
       <use xlink:href="#m9e5c23272d" x="208.16337" y="68.440797" style="stroke: #000000; stroke-width: 0.5"/>
      </g>
     </g>
     <g id="text_12">
      <!-- $\mathdefault{5}$ -->
      <g transform="translate(16.538314 71.142625) scale(0.08 -0.08)">
       <use xlink:href="#NimbusRomNo9L-Regu-35" transform="scale(0.996264)"/>
      </g>
     </g>
    </g>
    <g id="ytick_6">
     <g id="line2d_67">
      <path d="M 24.02337 48.909896 
L 208.16337 48.909896 
" clip-path="url(#pcf6136f6f8)" style="fill: none; stroke-dasharray: 1.85,0.8; stroke-dashoffset: 0; stroke: #000000; stroke-opacity: 0.5; stroke-width: 0.5"/>
     </g>
     <g id="line2d_68">
      <g>
       <use xlink:href="#m119a528b19" x="24.02337" y="48.909896" style="stroke: #000000; stroke-width: 0.5"/>
      </g>
     </g>
     <g id="line2d_69">
      <g>
       <use xlink:href="#m9e5c23272d" x="208.16337" y="48.909896" style="stroke: #000000; stroke-width: 0.5"/>
      </g>
     </g>
     <g id="text_13">
      <!-- $\mathdefault{6}$ -->
      <g transform="translate(16.538314 51.611724) scale(0.08 -0.08)">
       <use xlink:href="#NimbusRomNo9L-Regu-36" transform="scale(0.996264)"/>
      </g>
     </g>
    </g>
    <g id="ytick_7">
     <g id="line2d_70">
      <path d="M 24.02337 29.378996 
L 208.16337 29.378996 
" clip-path="url(#pcf6136f6f8)" style="fill: none; stroke-dasharray: 1.85,0.8; stroke-dashoffset: 0; stroke: #000000; stroke-opacity: 0.5; stroke-width: 0.5"/>
     </g>
     <g id="line2d_71">
      <g>
       <use xlink:href="#m119a528b19" x="24.02337" y="29.378996" style="stroke: #000000; stroke-width: 0.5"/>
      </g>
     </g>
     <g id="line2d_72">
      <g>
       <use xlink:href="#m9e5c23272d" x="208.16337" y="29.378996" style="stroke: #000000; stroke-width: 0.5"/>
      </g>
     </g>
     <g id="text_14">
      <!-- $\mathdefault{7}$ -->
      <g transform="translate(16.538314 32.080824) scale(0.08 -0.08)">
       <use xlink:href="#NimbusRomNo9L-Regu-37" transform="scale(0.996264)"/>
      </g>
     </g>
    </g>
    <g id="ytick_8">
     <g id="line2d_73">
      <defs>
       <path id="mb861b9676f" d="M 0 0 
L 1.5 0 
" style="stroke: #000000; stroke-width: 0.5"/>
      </defs>
      <g>
       <use xlink:href="#mb861b9676f" x="24.02337" y="154.376759" style="stroke: #000000; stroke-width: 0.5"/>
      </g>
     </g>
     <g id="line2d_74">
      <defs>
       <path id="me770d56815" d="M 0 0 
L -1.5 0 
" style="stroke: #000000; stroke-width: 0.5"/>
      </defs>
      <g>
       <use xlink:href="#me770d56815" x="208.16337" y="154.376759" style="stroke: #000000; stroke-width: 0.5"/>
      </g>
     </g>
    </g>
    <g id="ytick_9">
     <g id="line2d_75">
      <g>
       <use xlink:href="#mb861b9676f" x="24.02337" y="150.470578" style="stroke: #000000; stroke-width: 0.5"/>
      </g>
     </g>
     <g id="line2d_76">
      <g>
       <use xlink:href="#me770d56815" x="208.16337" y="150.470578" style="stroke: #000000; stroke-width: 0.5"/>
      </g>
     </g>
    </g>
    <g id="ytick_10">
     <g id="line2d_77">
      <g>
       <use xlink:href="#mb861b9676f" x="24.02337" y="142.658218" style="stroke: #000000; stroke-width: 0.5"/>
      </g>
     </g>
     <g id="line2d_78">
      <g>
       <use xlink:href="#me770d56815" x="208.16337" y="142.658218" style="stroke: #000000; stroke-width: 0.5"/>
      </g>
     </g>
    </g>
    <g id="ytick_11">
     <g id="line2d_79">
      <g>
       <use xlink:href="#mb861b9676f" x="24.02337" y="138.752038" style="stroke: #000000; stroke-width: 0.5"/>
      </g>
     </g>
     <g id="line2d_80">
      <g>
       <use xlink:href="#me770d56815" x="208.16337" y="138.752038" style="stroke: #000000; stroke-width: 0.5"/>
      </g>
     </g>
    </g>
    <g id="ytick_12">
     <g id="line2d_81">
      <g>
       <use xlink:href="#mb861b9676f" x="24.02337" y="134.845858" style="stroke: #000000; stroke-width: 0.5"/>
      </g>
     </g>
     <g id="line2d_82">
      <g>
       <use xlink:href="#me770d56815" x="208.16337" y="134.845858" style="stroke: #000000; stroke-width: 0.5"/>
      </g>
     </g>
    </g>
    <g id="ytick_13">
     <g id="line2d_83">
      <g>
       <use xlink:href="#mb861b9676f" x="24.02337" y="130.939678" style="stroke: #000000; stroke-width: 0.5"/>
      </g>
     </g>
     <g id="line2d_84">
      <g>
       <use xlink:href="#me770d56815" x="208.16337" y="130.939678" style="stroke: #000000; stroke-width: 0.5"/>
      </g>
     </g>
    </g>
    <g id="ytick_14">
     <g id="line2d_85">
      <g>
       <use xlink:href="#mb861b9676f" x="24.02337" y="123.127318" style="stroke: #000000; stroke-width: 0.5"/>
      </g>
     </g>
     <g id="line2d_86">
      <g>
       <use xlink:href="#me770d56815" x="208.16337" y="123.127318" style="stroke: #000000; stroke-width: 0.5"/>
      </g>
     </g>
    </g>
    <g id="ytick_15">
     <g id="line2d_87">
      <g>
       <use xlink:href="#mb861b9676f" x="24.02337" y="119.221138" style="stroke: #000000; stroke-width: 0.5"/>
      </g>
     </g>
     <g id="line2d_88">
      <g>
       <use xlink:href="#me770d56815" x="208.16337" y="119.221138" style="stroke: #000000; stroke-width: 0.5"/>
      </g>
     </g>
    </g>
    <g id="ytick_16">
     <g id="line2d_89">
      <g>
       <use xlink:href="#mb861b9676f" x="24.02337" y="115.314958" style="stroke: #000000; stroke-width: 0.5"/>
      </g>
     </g>
     <g id="line2d_90">
      <g>
       <use xlink:href="#me770d56815" x="208.16337" y="115.314958" style="stroke: #000000; stroke-width: 0.5"/>
      </g>
     </g>
    </g>
    <g id="ytick_17">
     <g id="line2d_91">
      <g>
       <use xlink:href="#mb861b9676f" x="24.02337" y="111.408778" style="stroke: #000000; stroke-width: 0.5"/>
      </g>
     </g>
     <g id="line2d_92">
      <g>
       <use xlink:href="#me770d56815" x="208.16337" y="111.408778" style="stroke: #000000; stroke-width: 0.5"/>
      </g>
     </g>
    </g>
    <g id="ytick_18">
     <g id="line2d_93">
      <g>
       <use xlink:href="#mb861b9676f" x="24.02337" y="103.596417" style="stroke: #000000; stroke-width: 0.5"/>
      </g>
     </g>
     <g id="line2d_94">
      <g>
       <use xlink:href="#me770d56815" x="208.16337" y="103.596417" style="stroke: #000000; stroke-width: 0.5"/>
      </g>
     </g>
    </g>
    <g id="ytick_19">
     <g id="line2d_95">
      <g>
       <use xlink:href="#mb861b9676f" x="24.02337" y="99.690237" style="stroke: #000000; stroke-width: 0.5"/>
      </g>
     </g>
     <g id="line2d_96">
      <g>
       <use xlink:href="#me770d56815" x="208.16337" y="99.690237" style="stroke: #000000; stroke-width: 0.5"/>
      </g>
     </g>
    </g>
    <g id="ytick_20">
     <g id="line2d_97">
      <g>
       <use xlink:href="#mb861b9676f" x="24.02337" y="95.784057" style="stroke: #000000; stroke-width: 0.5"/>
      </g>
     </g>
     <g id="line2d_98">
      <g>
       <use xlink:href="#me770d56815" x="208.16337" y="95.784057" style="stroke: #000000; stroke-width: 0.5"/>
      </g>
     </g>
    </g>
    <g id="ytick_21">
     <g id="line2d_99">
      <g>
       <use xlink:href="#mb861b9676f" x="24.02337" y="91.877877" style="stroke: #000000; stroke-width: 0.5"/>
      </g>
     </g>
     <g id="line2d_100">
      <g>
       <use xlink:href="#me770d56815" x="208.16337" y="91.877877" style="stroke: #000000; stroke-width: 0.5"/>
      </g>
     </g>
    </g>
    <g id="ytick_22">
     <g id="line2d_101">
      <g>
       <use xlink:href="#mb861b9676f" x="24.02337" y="84.065517" style="stroke: #000000; stroke-width: 0.5"/>
      </g>
     </g>
     <g id="line2d_102">
      <g>
       <use xlink:href="#me770d56815" x="208.16337" y="84.065517" style="stroke: #000000; stroke-width: 0.5"/>
      </g>
     </g>
    </g>
    <g id="ytick_23">
     <g id="line2d_103">
      <g>
       <use xlink:href="#mb861b9676f" x="24.02337" y="80.159337" style="stroke: #000000; stroke-width: 0.5"/>
      </g>
     </g>
     <g id="line2d_104">
      <g>
       <use xlink:href="#me770d56815" x="208.16337" y="80.159337" style="stroke: #000000; stroke-width: 0.5"/>
      </g>
     </g>
    </g>
    <g id="ytick_24">
     <g id="line2d_105">
      <g>
       <use xlink:href="#mb861b9676f" x="24.02337" y="76.253157" style="stroke: #000000; stroke-width: 0.5"/>
      </g>
     </g>
     <g id="line2d_106">
      <g>
       <use xlink:href="#me770d56815" x="208.16337" y="76.253157" style="stroke: #000000; stroke-width: 0.5"/>
      </g>
     </g>
    </g>
    <g id="ytick_25">
     <g id="line2d_107">
      <g>
       <use xlink:href="#mb861b9676f" x="24.02337" y="72.346977" style="stroke: #000000; stroke-width: 0.5"/>
      </g>
     </g>
     <g id="line2d_108">
      <g>
       <use xlink:href="#me770d56815" x="208.16337" y="72.346977" style="stroke: #000000; stroke-width: 0.5"/>
      </g>
     </g>
    </g>
    <g id="ytick_26">
     <g id="line2d_109">
      <g>
       <use xlink:href="#mb861b9676f" x="24.02337" y="64.534617" style="stroke: #000000; stroke-width: 0.5"/>
      </g>
     </g>
     <g id="line2d_110">
      <g>
       <use xlink:href="#me770d56815" x="208.16337" y="64.534617" style="stroke: #000000; stroke-width: 0.5"/>
      </g>
     </g>
    </g>
    <g id="ytick_27">
     <g id="line2d_111">
      <g>
       <use xlink:href="#mb861b9676f" x="24.02337" y="60.628437" style="stroke: #000000; stroke-width: 0.5"/>
      </g>
     </g>
     <g id="line2d_112">
      <g>
       <use xlink:href="#me770d56815" x="208.16337" y="60.628437" style="stroke: #000000; stroke-width: 0.5"/>
      </g>
     </g>
    </g>
    <g id="ytick_28">
     <g id="line2d_113">
      <g>
       <use xlink:href="#mb861b9676f" x="24.02337" y="56.722256" style="stroke: #000000; stroke-width: 0.5"/>
      </g>
     </g>
     <g id="line2d_114">
      <g>
       <use xlink:href="#me770d56815" x="208.16337" y="56.722256" style="stroke: #000000; stroke-width: 0.5"/>
      </g>
     </g>
    </g>
    <g id="ytick_29">
     <g id="line2d_115">
      <g>
       <use xlink:href="#mb861b9676f" x="24.02337" y="52.816076" style="stroke: #000000; stroke-width: 0.5"/>
      </g>
     </g>
     <g id="line2d_116">
      <g>
       <use xlink:href="#me770d56815" x="208.16337" y="52.816076" style="stroke: #000000; stroke-width: 0.5"/>
      </g>
     </g>
    </g>
    <g id="ytick_30">
     <g id="line2d_117">
      <g>
       <use xlink:href="#mb861b9676f" x="24.02337" y="45.003716" style="stroke: #000000; stroke-width: 0.5"/>
      </g>
     </g>
     <g id="line2d_118">
      <g>
       <use xlink:href="#me770d56815" x="208.16337" y="45.003716" style="stroke: #000000; stroke-width: 0.5"/>
      </g>
     </g>
    </g>
    <g id="ytick_31">
     <g id="line2d_119">
      <g>
       <use xlink:href="#mb861b9676f" x="24.02337" y="41.097536" style="stroke: #000000; stroke-width: 0.5"/>
      </g>
     </g>
     <g id="line2d_120">
      <g>
       <use xlink:href="#me770d56815" x="208.16337" y="41.097536" style="stroke: #000000; stroke-width: 0.5"/>
      </g>
     </g>
    </g>
    <g id="ytick_32">
     <g id="line2d_121">
      <g>
       <use xlink:href="#mb861b9676f" x="24.02337" y="37.191356" style="stroke: #000000; stroke-width: 0.5"/>
      </g>
     </g>
     <g id="line2d_122">
      <g>
       <use xlink:href="#me770d56815" x="208.16337" y="37.191356" style="stroke: #000000; stroke-width: 0.5"/>
      </g>
     </g>
    </g>
    <g id="ytick_33">
     <g id="line2d_123">
      <g>
       <use xlink:href="#mb861b9676f" x="24.02337" y="33.285176" style="stroke: #000000; stroke-width: 0.5"/>
      </g>
     </g>
     <g id="line2d_124">
      <g>
       <use xlink:href="#me770d56815" x="208.16337" y="33.285176" style="stroke: #000000; stroke-width: 0.5"/>
      </g>
     </g>
    </g>
    <g id="ytick_34">
     <g id="line2d_125">
      <g>
       <use xlink:href="#mb861b9676f" x="24.02337" y="25.472816" style="stroke: #000000; stroke-width: 0.5"/>
      </g>
     </g>
     <g id="line2d_126">
      <g>
       <use xlink:href="#me770d56815" x="208.16337" y="25.472816" style="stroke: #000000; stroke-width: 0.5"/>
      </g>
     </g>
    </g>
    <g id="ytick_35">
     <g id="line2d_127">
      <g>
       <use xlink:href="#mb861b9676f" x="24.02337" y="21.566636" style="stroke: #000000; stroke-width: 0.5"/>
      </g>
     </g>
     <g id="line2d_128">
      <g>
       <use xlink:href="#me770d56815" x="208.16337" y="21.566636" style="stroke: #000000; stroke-width: 0.5"/>
      </g>
     </g>
    </g>
    <g id="ytick_36">
     <g id="line2d_129">
      <g>
       <use xlink:href="#mb861b9676f" x="24.02337" y="17.660456" style="stroke: #000000; stroke-width: 0.5"/>
      </g>
     </g>
     <g id="line2d_130">
      <g>
       <use xlink:href="#me770d56815" x="208.16337" y="17.660456" style="stroke: #000000; stroke-width: 0.5"/>
      </g>
     </g>
    </g>
    <g id="text_15">
     <!-- $S(q)$ [C$^2$] -->
     <g transform="translate(10.545786 100.545362) rotate(-90) scale(0.08 -0.08)">
      <defs>
       <path id="NimbusRomNo9L-ReguItal-53" d="M 2995 3015 
L 3251 4288 
L 3104 4288 
C 3014 4154 2957 4122 2816 4122 
C 2739 4122 2669 4142 2522 4195 
C 2381 4255 2176 4288 1978 4288 
C 1312 4288 838 3846 838 3218 
C 838 2872 934 2686 1318 2275 
C 1376 2218 1459 2128 1568 2006 
C 1683 1884 1773 1788 1818 1737 
C 2118 1423 2202 1256 2202 980 
C 2202 499 1843 128 1376 128 
C 845 128 442 582 442 1191 
C 442 1242 448 1293 454 1338 
L 326 1350 
L 109 -77 
L 224 -77 
C 269 70 339 134 467 134 
C 538 134 634 108 800 51 
C 1094 -58 1267 -96 1466 -96 
C 2202 -96 2758 461 2758 1184 
C 2758 1600 2611 1850 2035 2432 
C 1459 3015 1402 3104 1402 3418 
C 1402 3821 1670 4071 2106 4071 
C 2342 4071 2541 3988 2675 3834 
C 2816 3674 2867 3456 2880 3034 
L 2995 3015 
z
" transform="scale(0.015625)"/>
       <path id="CMR10-28" d="M 2118 -1536 
C 2118 -1517 2118 -1504 2010 -1395 
C 1210 -584 1005 632 1005 1616 
C 1005 2735 1248 3855 2035 4658 
C 2118 4735 2118 4748 2118 4767 
C 2118 4812 2093 4832 2054 4832 
C 1990 4832 1414 4395 1037 3577 
C 710 2870 634 2156 634 1616 
C 634 1114 704 336 1056 -391 
C 1440 -1182 1990 -1600 2054 -1600 
C 2093 -1600 2118 -1581 2118 -1536 
z
" transform="scale(0.015625)"/>
       <path id="CMR10-29" d="M 1850 1616 
C 1850 2118 1779 2896 1427 3622 
C 1043 4414 493 4832 429 4832 
C 390 4832 365 4806 365 4767 
C 365 4748 365 4735 486 4620 
C 1114 3983 1478 2960 1478 1616 
C 1478 516 1242 -617 448 -1427 
C 365 -1504 365 -1517 365 -1536 
C 365 -1575 390 -1600 429 -1600 
C 493 -1600 1069 -1163 1446 -346 
C 1773 362 1850 1075 1850 1616 
z
" transform="scale(0.015625)"/>
      </defs>
      <use xlink:href="#NimbusRomNo9L-ReguItal-53" transform="scale(0.996264)"/>
      <use xlink:href="#CMR10-28" transform="translate(50.609774 0) scale(0.996264)"/>
      <use xlink:href="#NimbusRomNo9L-ReguItal-71" transform="translate(89.26362 0) scale(0.996264)"/>
      <use xlink:href="#CMR10-29" transform="translate(139.07682 0) scale(0.996264)"/>
      <use xlink:href="#NimbusRomNo9L-Regu-5b" transform="translate(202.637266 0) scale(0.996264)"/>
      <use xlink:href="#NimbusRomNo9L-Regu-43" transform="translate(235.812496 0) scale(0.996264)"/>
      <use xlink:href="#NimbusRomNo9L-Regu-32" transform="translate(302.262527 36.163231) scale(0.737241)"/>
      <use xlink:href="#NimbusRomNo9L-Regu-5d" transform="translate(339.622701 0) scale(0.996264)"/>
     </g>
    </g>
    <g id="text_16">
     <!-- $\times\mathdefault{10^{−39}}\mathdefault{}$ -->
     <g transform="translate(24.02337 13.084396) scale(0.08 -0.08)">
      <use xlink:href="#CMSY10-2" transform="scale(0.996264)"/>
      <use xlink:href="#NimbusRomNo9L-Regu-31" transform="translate(77.408707 0) scale(0.996264)"/>
      <use xlink:href="#NimbusRomNo9L-Regu-30" transform="translate(127.221908 0) scale(0.996264)"/>
      <use xlink:href="#CMSY10-0" transform="translate(177.035108 36.163231) scale(0.737241)"/>
      <use xlink:href="#NimbusRomNo9L-Regu-33" transform="translate(234.317978 36.163231) scale(0.737241)"/>
      <use xlink:href="#NimbusRomNo9L-Regu-39" transform="translate(271.18002 36.163231) scale(0.737241)"/>
     </g>
    </g>
   </g>
   <g id="line2d_131">
    <path d="M 32.39337 40.222448 
L 35.351756 46.116516 
L 36.970495 49.126752 
L 37.026314 48.519877 
L 37.082133 48.632164 
L 40.040519 54.324844 
L 40.37543 54.93732 
L 40.431249 54.720566 
L 40.487068 54.83056 
L 40.933616 55.704015 
L 40.989435 55.094337 
L 41.045254 55.213978 
L 44.059458 61.406308 
L 46.962026 66.871359 
L 49.752956 71.665499 
L 51.315877 74.152924 
L 51.371696 73.759286 
L 51.427514 73.855406 
L 54.162626 78.343989 
L 56.841919 82.320361 
L 57.232649 82.86547 
L 57.288468 82.182638 
L 57.344287 82.271374 
L 58.069928 83.408509 
L 58.125747 81.15469 
L 58.181566 81.257848 
L 61.028315 86.279339 
L 62.702873 89.01364 
L 62.758691 88.598661 
L 62.81451 88.697098 
L 62.870329 86.426279 
L 62.926147 86.541618 
L 65.884533 92.396069 
L 68.731282 97.550452 
L 69.959292 99.628832 
L 70.01511 98.930593 
L 70.070929 99.034819 
L 72.917678 104.110762 
L 74.536417 106.787502 
L 74.592236 106.354979 
L 74.648055 106.454861 
L 77.438985 111.218632 
L 80.118278 115.366909 
L 80.620645 116.098368 
L 80.676464 115.647708 
L 80.732283 115.73847 
L 83.132483 119.470341 
L 83.188301 118.730736 
L 83.24412 118.825634 
L 85.979232 123.254324 
L 86.816511 124.523322 
L 86.872329 124.066093 
L 86.928148 124.159743 
L 89.66326 128.527284 
L 92.286734 132.308961 
L 94.85439 135.623718 
L 97.310409 138.436622 
L 99.65479 140.795373 
L 101.943353 142.790548 
L 104.176097 144.44437 
L 106.353023 145.77852 
L 108.418311 146.790227 
L 110.4836 147.554592 
L 112.49307 148.060895 
L 114.446721 148.328649 
L 116.400372 148.375078 
L 118.354023 148.200183 
L 119.582033 147.976967 
L 119.749488 147.367271 
L 121.70314 147.205753 
L 123.656791 146.822911 
L 125.666261 146.198231 
L 127.67573 145.339399 
L 129.741019 144.212711 
L 131.862126 142.798115 
L 134.039052 141.075011 
L 136.271796 139.022263 
L 138.616177 136.555759 
L 141.016377 133.700349 
L 143.472396 130.432727 
L 144.309675 129.238817 
L 144.477131 126.395822 
L 146.765694 124.107139 
L 148.998438 121.581588 
L 149.165894 119.736755 
L 151.454457 117.483245 
L 153.798838 114.85986 
L 156.254857 111.769719 
L 157.538685 110.015209 
L 157.706141 108.778998 
L 160.162159 105.735167 
L 162.673997 102.260362 
L 165.297471 98.240506 
L 167.976764 93.723187 
L 168.255857 93.228694 
L 168.423313 91.189141 
L 171.046787 87.068939 
L 171.158425 86.884758 
L 171.32588 85.559895 
L 173.893536 81.741622 
L 176.572829 77.349739 
L 178.191569 74.494589 
L 178.359025 73.12786 
L 181.038318 68.718883 
L 183.326881 64.623245 
L 183.494337 62.508563 
L 185.336351 59.528559 
L 185.503806 58.164601 
L 188.071462 54.312265 
L 189.746021 51.593904 
L 189.913476 43.906527 
L 192.369495 40.78907 
L 194.881332 37.238964 
L 195.048788 29.477339 
L 197.39317 26.952371 
L 198.844453 25.229582 
L 199.011909 23.129815 
L 199.79337 22.384396 
L 199.79337 22.384396 
" clip-path="url(#pcf6136f6f8)" style="fill: none; stroke: #000000; stroke-linecap: square"/>
   </g>
   <g id="patch_3">
    <path d="M 24.02337 154.684396 
L 24.02337 16.084396 
" style="fill: none; stroke: #000000; stroke-width: 0.5; stroke-linejoin: miter; stroke-linecap: square"/>
   </g>
   <g id="patch_4">
    <path d="M 208.16337 154.684396 
L 208.16337 16.084396 
" style="fill: none; stroke: #000000; stroke-width: 0.5; stroke-linejoin: miter; stroke-linecap: square"/>
   </g>
   <g id="patch_5">
    <path d="M 24.02337 154.684396 
L 208.16337 154.684396 
" style="fill: none; stroke: #000000; stroke-width: 0.5; stroke-linejoin: miter; stroke-linecap: square"/>
   </g>
   <g id="patch_6">
    <path d="M 24.02337 16.084396 
L 208.16337 16.084396 
" style="fill: none; stroke: #000000; stroke-width: 0.5; stroke-linejoin: miter; stroke-linecap: square"/>
   </g>
   <g id="text_17">
    <!-- Miglior valore della carica -->
    <g transform="translate(65.35153 10.084396) scale(0.096 -0.096)">
     <defs>
      <path id="NimbusRomNo9L-Regu-4d" d="M 4314 3667 
L 4314 751 
C 4314 217 4237 134 3731 134 
L 3731 0 
L 5523 0 
L 5523 134 
C 5056 134 4966 223 4966 681 
L 4966 3536 
C 4966 3993 5050 4077 5523 4115 
L 5523 4237 
L 4250 4237 
L 2835 1004 
L 1357 4237 
L 90 4237 
L 90 4096 
C 614 4096 698 4019 698 3550 
L 698 943 
C 698 282 608 159 77 121 
L 77 0 
L 1581 0 
L 1581 134 
C 1088 134 979 282 979 931 
L 979 3520 
L 2586 0 
L 2675 0 
L 4314 3667 
z
" transform="scale(0.015625)"/>
      <path id="NimbusRomNo9L-Regu-67" d="M 3008 2496 
L 3008 2746 
L 2515 2746 
C 2387 2746 2291 2763 2163 2802 
L 2022 2847 
C 1850 2903 1677 2931 1510 2931 
C 915 2931 442 2467 442 1881 
C 442 1476 614 1230 1037 1018 
C 915 906 800 799 762 768 
C 550 588 467 463 467 338 
C 467 206 544 131 806 6 
C 352 -329 179 -543 179 -781 
C 179 -1124 678 -1408 1286 -1408 
C 1766 -1408 2266 -1238 2598 -962 
C 2842 -759 2950 -548 2950 -299 
C 2950 108 2650 384 2176 384 
L 1350 384 
C 1011 384 851 443 851 548 
C 851 678 1062 908 1235 960 
C 1293 953 1338 947 1357 947 
C 1478 934 1562 928 1600 928 
C 1837 928 2093 1026 2291 1203 
C 2502 1387 2598 1617 2598 1945 
C 2598 2135 2566 2286 2477 2496 
L 3008 2496 
z
M 941 -13 
C 1152 -58 1664 -96 1978 -96 
C 2560 -96 2771 -180 2771 -414 
C 2771 -791 2285 -1043 1562 -1043 
C 998 -1043 627 -855 627 -570 
C 627 -420 672 -336 941 -13 
z
M 973 2145 
C 973 2526 1152 2752 1446 2752 
C 1645 2752 1811 2642 1914 2449 
C 2029 2223 2106 1927 2106 1675 
C 2106 1314 1920 1088 1626 1088 
C 1242 1088 973 1507 973 2126 
L 973 2145 
z
" transform="scale(0.015625)"/>
      <path id="NimbusRomNo9L-Regu-6c" d="M 122 4000 
L 160 4000 
C 230 4000 307 4000 358 4000 
C 563 4000 627 3910 627 3610 
L 627 557 
C 627 211 538 128 134 96 
L 134 0 
L 1645 0 
L 1645 109 
C 1242 109 1165 173 1165 528 
L 1165 4371 
L 1139 4384 
C 806 4275 563 4211 122 4103 
L 122 4000 
z
" transform="scale(0.015625)"/>
      <path id="NimbusRomNo9L-Regu-6f" d="M 1600 2944 
C 768 2944 186 2330 186 1446 
C 186 582 781 -64 1587 -64 
C 2394 -64 3008 614 3008 1498 
C 3008 2336 2419 2944 1600 2944 
z
M 1517 2765 
C 2054 2765 2432 2150 2432 1274 
C 2432 550 2144 115 1664 115 
C 1414 115 1178 269 1043 525 
C 864 858 762 1306 762 1760 
C 762 2368 1062 2765 1517 2765 
z
" transform="scale(0.015625)"/>
      <path id="NimbusRomNo9L-Regu-76" d="M 3053 2854 
L 2163 2854 
L 2163 2758 
C 2368 2739 2464 2675 2464 2552 
C 2464 2488 2451 2424 2426 2359 
L 1792 695 
L 1139 2340 
C 1101 2431 1082 2520 1082 2578 
C 1082 2694 1152 2739 1376 2758 
L 1376 2854 
L 122 2854 
L 122 2752 
C 365 2752 410 2688 704 2024 
L 1472 175 
C 1485 137 1504 91 1523 40 
C 1562 -76 1600 -128 1638 -128 
C 1677 -128 1722 -44 1818 193 
L 2637 2257 
C 2822 2694 2861 2739 3053 2758 
L 3053 2854 
z
" transform="scale(0.015625)"/>
      <path id="NimbusRomNo9L-Regu-65" d="M 2611 1053 
C 2304 564 2029 378 1619 378 
C 1254 378 979 564 794 930 
C 678 1174 634 1386 621 1779 
L 2592 1779 
C 2541 2193 2477 2377 2317 2581 
C 2125 2811 1830 2944 1498 2944 
C 1178 2944 877 2829 634 2611 
C 333 2349 160 1894 160 1370 
C 160 486 621 -64 1357 -64 
C 1965 -64 2445 315 2714 1008 
L 2611 1053 
z
M 634 1984 
C 704 2479 922 2714 1312 2714 
C 1702 2714 1856 2535 1939 1984 
L 634 1984 
z
" transform="scale(0.015625)"/>
      <path id="NimbusRomNo9L-Regu-64" d="M 2202 -64 
L 3142 269 
L 3142 365 
C 3027 365 3014 365 2995 365 
C 2765 365 2714 435 2714 731 
L 2714 4364 
L 2682 4377 
C 2374 4268 2150 4204 1741 4096 
L 1741 3994 
C 1792 4000 1830 4000 1882 4000 
C 2118 4000 2176 3936 2176 3672 
L 2176 2669 
C 1933 2874 1760 2944 1504 2944 
C 768 2944 173 2221 173 1312 
C 173 493 653 -64 1357 -64 
C 1715 -64 1958 64 2176 365 
L 2176 -45 
L 2202 -64 
z
M 2176 653 
C 2176 608 2131 531 2067 461 
C 1952 333 1792 269 1606 269 
C 1075 269 723 781 723 1568 
C 723 2291 1037 2765 1523 2765 
C 1862 2765 2176 2464 2176 2125 
L 2176 653 
z
" transform="scale(0.015625)"/>
     </defs>
     <use xlink:href="#NimbusRomNo9L-Regu-4d" transform="scale(0.996264)"/>
     <use xlink:href="#NimbusRomNo9L-Regu-69" transform="translate(88.566907 0) scale(0.996264)"/>
     <use xlink:href="#NimbusRomNo9L-Regu-67" transform="translate(116.262076 0) scale(0.996264)"/>
     <use xlink:href="#NimbusRomNo9L-Regu-6c" transform="translate(166.075277 0) scale(0.996264)"/>
     <use xlink:href="#NimbusRomNo9L-Regu-69" transform="translate(193.770446 0) scale(0.996264)"/>
     <use xlink:href="#NimbusRomNo9L-Regu-6f" transform="translate(221.465616 0) scale(0.996264)"/>
     <use xlink:href="#NimbusRomNo9L-Regu-72" transform="translate(271.278816 0) scale(0.996264)"/>
     <use xlink:href="#NimbusRomNo9L-Regu-76" transform="translate(329.360646 0) scale(0.996264)"/>
     <use xlink:href="#NimbusRomNo9L-Regu-61" transform="translate(376.683217 0) scale(0.996264)"/>
     <use xlink:href="#NimbusRomNo9L-Regu-6c" transform="translate(420.916786 0) scale(0.996264)"/>
     <use xlink:href="#NimbusRomNo9L-Regu-6f" transform="translate(448.611956 0) scale(0.996264)"/>
     <use xlink:href="#NimbusRomNo9L-Regu-72" transform="translate(498.425156 0) scale(0.996264)"/>
     <use xlink:href="#NimbusRomNo9L-Regu-65" transform="translate(531.600386 0) scale(0.996264)"/>
     <use xlink:href="#NimbusRomNo9L-Regu-64" transform="translate(600.740555 0) scale(0.996264)"/>
     <use xlink:href="#NimbusRomNo9L-Regu-65" transform="translate(650.553755 0) scale(0.996264)"/>
     <use xlink:href="#NimbusRomNo9L-Regu-6c" transform="translate(694.787324 0) scale(0.996264)"/>
     <use xlink:href="#NimbusRomNo9L-Regu-6c" transform="translate(722.482494 0) scale(0.996264)"/>
     <use xlink:href="#NimbusRomNo9L-Regu-61" transform="translate(750.177663 0) scale(0.996264)"/>
     <use xlink:href="#NimbusRomNo9L-Regu-63" transform="translate(819.317832 0) scale(0.996264)"/>
     <use xlink:href="#NimbusRomNo9L-Regu-61" transform="translate(863.551401 0) scale(0.996264)"/>
     <use xlink:href="#NimbusRomNo9L-Regu-72" transform="translate(907.78497 0) scale(0.996264)"/>
     <use xlink:href="#NimbusRomNo9L-Regu-69" transform="translate(940.960199 0) scale(0.996264)"/>
     <use xlink:href="#NimbusRomNo9L-Regu-63" transform="translate(968.655369 0) scale(0.996264)"/>
     <use xlink:href="#NimbusRomNo9L-Regu-61" transform="translate(1012.888938 0) scale(0.996264)"/>
    </g>
   </g>
  </g>
 </g>
 <defs>
  <clipPath id="pcf6136f6f8">
   <rect x="24.02337" y="16.084396" width="184.14" height="138.6"/>
  </clipPath>
 </defs>
</svg>
