<?xml version="1.0" encoding="utf-8" standalone="no"?>
<!DOCTYPE svg PUBLIC "-//W3C//DTD SVG 1.1//EN"
  "http://www.w3.org/Graphics/SVG/1.1/DTD/svg11.dtd">
<svg xmlns:xlink="http://www.w3.org/1999/xlink" width="217.956059pt" height="180.042634pt" viewBox="0 0 217.956059 180.042634" xmlns="http://www.w3.org/2000/svg" version="1.1">
 <metadata>
  <rdf:RDF xmlns:dc="http://purl.org/dc/elements/1.1/" xmlns:cc="http://creativecommons.org/ns#" xmlns:rdf="http://www.w3.org/1999/02/22-rdf-syntax-ns#">
   <cc:Work>
    <dc:type rdf:resource="http://purl.org/dc/dcmitype/StillImage"/>
    <dc:date>2024-11-20T20:47:27.212028</dc:date>
    <dc:format>image/svg+xml</dc:format>
    <dc:creator>
     <cc:Agent>
      <dc:title>Matplotlib v3.9.2, https://matplotlib.org/</dc:title>
     </cc:Agent>
    </dc:creator>
   </cc:Work>
  </rdf:RDF>
 </metadata>
 <defs>
  <style type="text/css">*{stroke-linejoin: round; stroke-linecap: butt}</style>
 </defs>
 <g id="figure_1">
  <g id="patch_1">
   <path d="M 0 180.042634 
L 217.956059 180.042634 
L 217.956059 0 
L 0 0 
z
" style="fill: #ffffff"/>
  </g>
  <g id="axes_1">
   <g id="patch_2">
    <path d="M 30.216059 154.684396 
L 214.356059 154.684396 
L 214.356059 16.084396 
L 30.216059 16.084396 
z
" style="fill: #ffffff"/>
   </g>
   <g id="matplotlib.axis_1">
    <g id="xtick_1">
     <g id="line2d_1">
      <path d="M 38.586059 154.684396 
L 38.586059 16.084396 
" clip-path="url(#p2ef00d2b9e)" style="fill: none; stroke-dasharray: 1.85,0.8; stroke-dashoffset: 0; stroke: #000000; stroke-opacity: 0.5; stroke-width: 0.5"/>
     </g>
     <g id="line2d_2">
      <defs>
       <path id="m1f09d3c148" d="M 0 0 
L 0 -3 
" style="stroke: #000000; stroke-width: 0.5"/>
      </defs>
      <g>
       <use xlink:href="#m1f09d3c148" x="38.586059" y="154.684396" style="stroke: #000000; stroke-width: 0.5"/>
      </g>
     </g>
     <g id="line2d_3">
      <defs>
       <path id="m48530ad096" d="M 0 0 
L 0 3 
" style="stroke: #000000; stroke-width: 0.5"/>
      </defs>
      <g>
       <use xlink:href="#m48530ad096" x="38.586059" y="16.084396" style="stroke: #000000; stroke-width: 0.5"/>
      </g>
     </g>
     <g id="text_1">
      <!-- $\mathdefault{1.50}$ -->
      <g transform="translate(31.504658 163.588052) scale(0.08 -0.08)">
       <defs>
        <path id="NimbusRomNo9L-Regu-31" d="M 1862 4339 
L 710 3757 
L 710 3667 
C 787 3699 858 3725 883 3738 
C 998 3783 1107 3808 1171 3808 
C 1306 3808 1363 3711 1363 3505 
L 1363 592 
C 1363 379 1312 232 1210 173 
C 1114 116 1024 96 755 96 
L 755 0 
L 2522 0 
L 2522 96 
C 2016 96 1914 160 1914 470 
L 1914 4327 
L 1862 4339 
z
" transform="scale(0.015625)"/>
        <path id="CMMI10-3a" d="M 1229 338 
C 1229 522 1075 675 890 675 
C 704 675 550 522 550 338 
C 550 153 704 0 890 0 
C 1075 0 1229 153 1229 338 
z
" transform="scale(0.015625)"/>
        <path id="NimbusRomNo9L-Regu-35" d="M 1158 3776 
L 2413 3776 
C 2515 3776 2541 3789 2560 3834 
L 2803 4403 
L 2746 4448 
C 2650 4314 2586 4282 2451 4282 
L 1114 4282 
L 416 2759 
C 410 2746 410 2740 410 2727 
C 410 2695 435 2676 486 2676 
C 691 2676 947 2631 1210 2547 
C 1946 2309 2285 1910 2285 1274 
C 2285 656 1894 173 1395 173 
C 1267 173 1158 218 966 360 
C 762 508 614 572 480 572 
C 294 572 205 495 205 334 
C 205 90 506 -64 986 -64 
C 1523 -64 1984 110 2304 438 
C 2598 728 2733 1094 2733 1583 
C 2733 2046 2611 2342 2291 2663 
C 2010 2947 1645 3094 890 3229 
L 1158 3776 
z
" transform="scale(0.015625)"/>
        <path id="NimbusRomNo9L-Regu-30" d="M 1626 4352 
C 1274 4352 1005 4244 768 4020 
C 397 3661 154 2925 154 2176 
C 154 1479 365 730 666 372 
C 902 90 1229 -64 1600 -64 
C 1926 -64 2202 45 2432 269 
C 2803 621 3046 1364 3046 2138 
C 3046 3450 2464 4352 1626 4352 
z
M 1606 4186 
C 2144 4186 2432 3463 2432 2125 
C 2432 788 2150 103 1600 103 
C 1050 103 768 788 768 2119 
C 768 3476 1056 4186 1606 4186 
z
" transform="scale(0.015625)"/>
       </defs>
       <use xlink:href="#NimbusRomNo9L-Regu-31" transform="scale(0.996264)"/>
       <use xlink:href="#CMMI10-3a" transform="translate(49.8132 0) scale(0.996264)"/>
       <use xlink:href="#NimbusRomNo9L-Regu-35" transform="translate(77.408707 0) scale(0.996264)"/>
       <use xlink:href="#NimbusRomNo9L-Regu-30" transform="translate(127.221908 0) scale(0.996264)"/>
      </g>
     </g>
    </g>
    <g id="xtick_2">
     <g id="line2d_4">
      <path d="M 80.436059 154.684396 
L 80.436059 16.084396 
" clip-path="url(#p2ef00d2b9e)" style="fill: none; stroke-dasharray: 1.85,0.8; stroke-dashoffset: 0; stroke: #000000; stroke-opacity: 0.5; stroke-width: 0.5"/>
     </g>
     <g id="line2d_5">
      <g>
       <use xlink:href="#m1f09d3c148" x="80.436059" y="154.684396" style="stroke: #000000; stroke-width: 0.5"/>
      </g>
     </g>
     <g id="line2d_6">
      <g>
       <use xlink:href="#m48530ad096" x="80.436059" y="16.084396" style="stroke: #000000; stroke-width: 0.5"/>
      </g>
     </g>
     <g id="text_2">
      <!-- $\mathdefault{1.55}$ -->
      <g transform="translate(73.354658 163.588052) scale(0.08 -0.08)">
       <use xlink:href="#NimbusRomNo9L-Regu-31" transform="scale(0.996264)"/>
       <use xlink:href="#CMMI10-3a" transform="translate(49.8132 0) scale(0.996264)"/>
       <use xlink:href="#NimbusRomNo9L-Regu-35" transform="translate(77.408707 0) scale(0.996264)"/>
       <use xlink:href="#NimbusRomNo9L-Regu-35" transform="translate(127.221908 0) scale(0.996264)"/>
      </g>
     </g>
    </g>
    <g id="xtick_3">
     <g id="line2d_7">
      <path d="M 122.286059 154.684396 
L 122.286059 16.084396 
" clip-path="url(#p2ef00d2b9e)" style="fill: none; stroke-dasharray: 1.85,0.8; stroke-dashoffset: 0; stroke: #000000; stroke-opacity: 0.5; stroke-width: 0.5"/>
     </g>
     <g id="line2d_8">
      <g>
       <use xlink:href="#m1f09d3c148" x="122.286059" y="154.684396" style="stroke: #000000; stroke-width: 0.5"/>
      </g>
     </g>
     <g id="line2d_9">
      <g>
       <use xlink:href="#m48530ad096" x="122.286059" y="16.084396" style="stroke: #000000; stroke-width: 0.5"/>
      </g>
     </g>
     <g id="text_3">
      <!-- $\mathdefault{1.60}$ -->
      <g transform="translate(115.204658 163.588052) scale(0.08 -0.08)">
       <defs>
        <path id="NimbusRomNo9L-Regu-36" d="M 2854 4391 
C 2125 4327 1754 4205 1286 3879 
C 595 3386 218 2656 218 1802 
C 218 1248 390 688 666 370 
C 909 89 1254 -64 1651 -64 
C 2445 -64 2995 541 2995 1421 
C 2995 2236 2528 2752 1792 2752 
C 1510 2752 1376 2707 973 2464 
C 1146 3431 1862 4122 2867 4288 
L 2854 4391 
z
M 1549 2458 
C 2099 2458 2419 2000 2419 1204 
C 2419 504 2170 116 1722 116 
C 1158 116 813 714 813 1700 
C 813 2025 864 2203 992 2299 
C 1126 2400 1325 2458 1549 2458 
z
" transform="scale(0.015625)"/>
       </defs>
       <use xlink:href="#NimbusRomNo9L-Regu-31" transform="scale(0.996264)"/>
       <use xlink:href="#CMMI10-3a" transform="translate(49.8132 0) scale(0.996264)"/>
       <use xlink:href="#NimbusRomNo9L-Regu-36" transform="translate(77.408707 0) scale(0.996264)"/>
       <use xlink:href="#NimbusRomNo9L-Regu-30" transform="translate(127.221908 0) scale(0.996264)"/>
      </g>
     </g>
    </g>
    <g id="xtick_4">
     <g id="line2d_10">
      <path d="M 164.136059 154.684396 
L 164.136059 16.084396 
" clip-path="url(#p2ef00d2b9e)" style="fill: none; stroke-dasharray: 1.85,0.8; stroke-dashoffset: 0; stroke: #000000; stroke-opacity: 0.5; stroke-width: 0.5"/>
     </g>
     <g id="line2d_11">
      <g>
       <use xlink:href="#m1f09d3c148" x="164.136059" y="154.684396" style="stroke: #000000; stroke-width: 0.5"/>
      </g>
     </g>
     <g id="line2d_12">
      <g>
       <use xlink:href="#m48530ad096" x="164.136059" y="16.084396" style="stroke: #000000; stroke-width: 0.5"/>
      </g>
     </g>
     <g id="text_4">
      <!-- $\mathdefault{1.65}$ -->
      <g transform="translate(157.054658 163.588052) scale(0.08 -0.08)">
       <use xlink:href="#NimbusRomNo9L-Regu-31" transform="scale(0.996264)"/>
       <use xlink:href="#CMMI10-3a" transform="translate(49.8132 0) scale(0.996264)"/>
       <use xlink:href="#NimbusRomNo9L-Regu-36" transform="translate(77.408707 0) scale(0.996264)"/>
       <use xlink:href="#NimbusRomNo9L-Regu-35" transform="translate(127.221908 0) scale(0.996264)"/>
      </g>
     </g>
    </g>
    <g id="xtick_5">
     <g id="line2d_13">
      <path d="M 205.986059 154.684396 
L 205.986059 16.084396 
" clip-path="url(#p2ef00d2b9e)" style="fill: none; stroke-dasharray: 1.85,0.8; stroke-dashoffset: 0; stroke: #000000; stroke-opacity: 0.5; stroke-width: 0.5"/>
     </g>
     <g id="line2d_14">
      <g>
       <use xlink:href="#m1f09d3c148" x="205.986059" y="154.684396" style="stroke: #000000; stroke-width: 0.5"/>
      </g>
     </g>
     <g id="line2d_15">
      <g>
       <use xlink:href="#m48530ad096" x="205.986059" y="16.084396" style="stroke: #000000; stroke-width: 0.5"/>
      </g>
     </g>
     <g id="text_5">
      <!-- $\mathdefault{1.70}$ -->
      <g transform="translate(198.904658 163.588052) scale(0.08 -0.08)">
       <defs>
        <path id="NimbusRomNo9L-Regu-37" d="M 2874 4250 
L 506 4250 
L 128 3310 
L 237 3258 
C 512 3693 627 3776 979 3776 
L 2368 3776 
L 1101 -32 
L 1517 -32 
L 2874 4148 
L 2874 4250 
z
" transform="scale(0.015625)"/>
       </defs>
       <use xlink:href="#NimbusRomNo9L-Regu-31" transform="scale(0.996264)"/>
       <use xlink:href="#CMMI10-3a" transform="translate(49.8132 0) scale(0.996264)"/>
       <use xlink:href="#NimbusRomNo9L-Regu-37" transform="translate(77.408707 0) scale(0.996264)"/>
       <use xlink:href="#NimbusRomNo9L-Regu-30" transform="translate(127.221908 0) scale(0.996264)"/>
      </g>
     </g>
    </g>
    <g id="xtick_6">
     <g id="line2d_16">
      <defs>
       <path id="m242a64b213" d="M 0 0 
L 0 -1.5 
" style="stroke: #000000; stroke-width: 0.5"/>
      </defs>
      <g>
       <use xlink:href="#m242a64b213" x="30.216059" y="154.684396" style="stroke: #000000; stroke-width: 0.5"/>
      </g>
     </g>
     <g id="line2d_17">
      <defs>
       <path id="m56f72648b2" d="M 0 0 
L 0 1.5 
" style="stroke: #000000; stroke-width: 0.5"/>
      </defs>
      <g>
       <use xlink:href="#m56f72648b2" x="30.216059" y="16.084396" style="stroke: #000000; stroke-width: 0.5"/>
      </g>
     </g>
    </g>
    <g id="xtick_7">
     <g id="line2d_18">
      <g>
       <use xlink:href="#m242a64b213" x="46.956059" y="154.684396" style="stroke: #000000; stroke-width: 0.5"/>
      </g>
     </g>
     <g id="line2d_19">
      <g>
       <use xlink:href="#m56f72648b2" x="46.956059" y="16.084396" style="stroke: #000000; stroke-width: 0.5"/>
      </g>
     </g>
    </g>
    <g id="xtick_8">
     <g id="line2d_20">
      <g>
       <use xlink:href="#m242a64b213" x="55.326059" y="154.684396" style="stroke: #000000; stroke-width: 0.5"/>
      </g>
     </g>
     <g id="line2d_21">
      <g>
       <use xlink:href="#m56f72648b2" x="55.326059" y="16.084396" style="stroke: #000000; stroke-width: 0.5"/>
      </g>
     </g>
    </g>
    <g id="xtick_9">
     <g id="line2d_22">
      <g>
       <use xlink:href="#m242a64b213" x="63.696059" y="154.684396" style="stroke: #000000; stroke-width: 0.5"/>
      </g>
     </g>
     <g id="line2d_23">
      <g>
       <use xlink:href="#m56f72648b2" x="63.696059" y="16.084396" style="stroke: #000000; stroke-width: 0.5"/>
      </g>
     </g>
    </g>
    <g id="xtick_10">
     <g id="line2d_24">
      <g>
       <use xlink:href="#m242a64b213" x="72.066059" y="154.684396" style="stroke: #000000; stroke-width: 0.5"/>
      </g>
     </g>
     <g id="line2d_25">
      <g>
       <use xlink:href="#m56f72648b2" x="72.066059" y="16.084396" style="stroke: #000000; stroke-width: 0.5"/>
      </g>
     </g>
    </g>
    <g id="xtick_11">
     <g id="line2d_26">
      <g>
       <use xlink:href="#m242a64b213" x="88.806059" y="154.684396" style="stroke: #000000; stroke-width: 0.5"/>
      </g>
     </g>
     <g id="line2d_27">
      <g>
       <use xlink:href="#m56f72648b2" x="88.806059" y="16.084396" style="stroke: #000000; stroke-width: 0.5"/>
      </g>
     </g>
    </g>
    <g id="xtick_12">
     <g id="line2d_28">
      <g>
       <use xlink:href="#m242a64b213" x="97.176059" y="154.684396" style="stroke: #000000; stroke-width: 0.5"/>
      </g>
     </g>
     <g id="line2d_29">
      <g>
       <use xlink:href="#m56f72648b2" x="97.176059" y="16.084396" style="stroke: #000000; stroke-width: 0.5"/>
      </g>
     </g>
    </g>
    <g id="xtick_13">
     <g id="line2d_30">
      <g>
       <use xlink:href="#m242a64b213" x="105.546059" y="154.684396" style="stroke: #000000; stroke-width: 0.5"/>
      </g>
     </g>
     <g id="line2d_31">
      <g>
       <use xlink:href="#m56f72648b2" x="105.546059" y="16.084396" style="stroke: #000000; stroke-width: 0.5"/>
      </g>
     </g>
    </g>
    <g id="xtick_14">
     <g id="line2d_32">
      <g>
       <use xlink:href="#m242a64b213" x="113.916059" y="154.684396" style="stroke: #000000; stroke-width: 0.5"/>
      </g>
     </g>
     <g id="line2d_33">
      <g>
       <use xlink:href="#m56f72648b2" x="113.916059" y="16.084396" style="stroke: #000000; stroke-width: 0.5"/>
      </g>
     </g>
    </g>
    <g id="xtick_15">
     <g id="line2d_34">
      <g>
       <use xlink:href="#m242a64b213" x="130.656059" y="154.684396" style="stroke: #000000; stroke-width: 0.5"/>
      </g>
     </g>
     <g id="line2d_35">
      <g>
       <use xlink:href="#m56f72648b2" x="130.656059" y="16.084396" style="stroke: #000000; stroke-width: 0.5"/>
      </g>
     </g>
    </g>
    <g id="xtick_16">
     <g id="line2d_36">
      <g>
       <use xlink:href="#m242a64b213" x="139.026059" y="154.684396" style="stroke: #000000; stroke-width: 0.5"/>
      </g>
     </g>
     <g id="line2d_37">
      <g>
       <use xlink:href="#m56f72648b2" x="139.026059" y="16.084396" style="stroke: #000000; stroke-width: 0.5"/>
      </g>
     </g>
    </g>
    <g id="xtick_17">
     <g id="line2d_38">
      <g>
       <use xlink:href="#m242a64b213" x="147.396059" y="154.684396" style="stroke: #000000; stroke-width: 0.5"/>
      </g>
     </g>
     <g id="line2d_39">
      <g>
       <use xlink:href="#m56f72648b2" x="147.396059" y="16.084396" style="stroke: #000000; stroke-width: 0.5"/>
      </g>
     </g>
    </g>
    <g id="xtick_18">
     <g id="line2d_40">
      <g>
       <use xlink:href="#m242a64b213" x="155.766059" y="154.684396" style="stroke: #000000; stroke-width: 0.5"/>
      </g>
     </g>
     <g id="line2d_41">
      <g>
       <use xlink:href="#m56f72648b2" x="155.766059" y="16.084396" style="stroke: #000000; stroke-width: 0.5"/>
      </g>
     </g>
    </g>
    <g id="xtick_19">
     <g id="line2d_42">
      <g>
       <use xlink:href="#m242a64b213" x="172.506059" y="154.684396" style="stroke: #000000; stroke-width: 0.5"/>
      </g>
     </g>
     <g id="line2d_43">
      <g>
       <use xlink:href="#m56f72648b2" x="172.506059" y="16.084396" style="stroke: #000000; stroke-width: 0.5"/>
      </g>
     </g>
    </g>
    <g id="xtick_20">
     <g id="line2d_44">
      <g>
       <use xlink:href="#m242a64b213" x="180.876059" y="154.684396" style="stroke: #000000; stroke-width: 0.5"/>
      </g>
     </g>
     <g id="line2d_45">
      <g>
       <use xlink:href="#m56f72648b2" x="180.876059" y="16.084396" style="stroke: #000000; stroke-width: 0.5"/>
      </g>
     </g>
    </g>
    <g id="xtick_21">
     <g id="line2d_46">
      <g>
       <use xlink:href="#m242a64b213" x="189.246059" y="154.684396" style="stroke: #000000; stroke-width: 0.5"/>
      </g>
     </g>
     <g id="line2d_47">
      <g>
       <use xlink:href="#m56f72648b2" x="189.246059" y="16.084396" style="stroke: #000000; stroke-width: 0.5"/>
      </g>
     </g>
    </g>
    <g id="xtick_22">
     <g id="line2d_48">
      <g>
       <use xlink:href="#m242a64b213" x="197.616059" y="154.684396" style="stroke: #000000; stroke-width: 0.5"/>
      </g>
     </g>
     <g id="line2d_49">
      <g>
       <use xlink:href="#m56f72648b2" x="197.616059" y="16.084396" style="stroke: #000000; stroke-width: 0.5"/>
      </g>
     </g>
    </g>
    <g id="xtick_23">
     <g id="line2d_50">
      <g>
       <use xlink:href="#m242a64b213" x="214.356059" y="154.684396" style="stroke: #000000; stroke-width: 0.5"/>
      </g>
     </g>
     <g id="line2d_51">
      <g>
       <use xlink:href="#m56f72648b2" x="214.356059" y="16.084396" style="stroke: #000000; stroke-width: 0.5"/>
      </g>
     </g>
    </g>
    <g id="text_6">
     <!-- Carica $q$ [C] -->
     <g transform="translate(102.588137 174.717171) scale(0.08 -0.08)">
      <defs>
       <path id="NimbusRomNo9L-Regu-43" d="M 3968 2906 
L 3910 4352 
L 3776 4352 
C 3738 4218 3635 4141 3507 4141 
C 3450 4141 3354 4160 3258 4199 
C 2944 4301 2624 4352 2323 4352 
C 1798 4352 1267 4154 870 3802 
C 422 3405 179 2810 179 2106 
C 179 1511 371 960 698 596 
C 1082 180 1670 -64 2304 -64 
C 3027 -64 3661 231 4051 749 
L 3936 864 
C 3462 410 3040 218 2509 218 
C 2106 218 1747 346 1472 589 
C 1120 903 922 1479 922 2189 
C 922 3348 1517 4096 2445 4096 
C 2810 4096 3142 3962 3398 3706 
C 3603 3501 3699 3322 3821 2906 
L 3968 2906 
z
" transform="scale(0.015625)"/>
       <path id="NimbusRomNo9L-Regu-61" d="M 2829 423 
C 2720 333 2643 301 2547 301 
C 2400 301 2355 390 2355 672 
L 2355 1920 
C 2355 2253 2323 2438 2227 2592 
C 2086 2822 1811 2944 1434 2944 
C 832 2944 358 2630 358 2227 
C 358 2080 486 1952 634 1952 
C 787 1952 922 2080 922 2221 
C 922 2246 915 2278 909 2323 
C 896 2381 890 2432 890 2477 
C 890 2650 1094 2790 1350 2790 
C 1664 2790 1837 2605 1837 2259 
L 1837 1869 
C 851 1472 742 1421 467 1178 
C 326 1050 237 832 237 621 
C 237 218 518 -64 909 -64 
C 1190 -64 1453 70 1843 403 
C 1875 70 1990 -64 2253 -64 
C 2470 -64 2605 13 2829 256 
L 2829 423 
z
M 1837 783 
C 1837 584 1805 526 1670 449 
C 1517 359 1338 301 1203 301 
C 979 301 800 520 800 796 
L 800 822 
C 800 1201 1062 1433 1837 1715 
L 1837 783 
z
" transform="scale(0.015625)"/>
       <path id="NimbusRomNo9L-Regu-72" d="M 45 2496 
C 134 2515 192 2522 269 2522 
C 429 2522 486 2419 486 2138 
L 486 538 
C 486 218 442 173 32 96 
L 32 0 
L 1568 0 
L 1568 102 
C 1133 102 1024 199 1024 565 
L 1024 2013 
C 1024 2219 1299 2541 1472 2541 
C 1510 2541 1568 2509 1638 2445 
C 1741 2355 1811 2317 1894 2317 
C 2048 2317 2144 2426 2144 2605 
C 2144 2816 2010 2944 1792 2944 
C 1523 2944 1338 2797 1024 2343 
L 1024 2931 
L 992 2944 
C 653 2803 422 2721 45 2599 
L 45 2496 
z
" transform="scale(0.015625)"/>
       <path id="NimbusRomNo9L-Regu-69" d="M 1120 2929 
L 128 2579 
L 128 2484 
L 179 2490 
C 256 2502 339 2509 397 2509 
C 550 2509 608 2406 608 2125 
L 608 640 
C 608 179 544 109 102 109 
L 102 0 
L 1619 0 
L 1619 96 
C 1197 128 1146 191 1146 650 
L 1146 2910 
L 1120 2929 
z
M 819 4352 
C 646 4352 499 4205 499 4026 
C 499 3847 640 3699 819 3699 
C 1005 3699 1152 3840 1152 4026 
C 1152 4205 1005 4352 819 4352 
z
" transform="scale(0.015625)"/>
       <path id="NimbusRomNo9L-Regu-63" d="M 2547 998 
C 2240 550 2010 397 1645 397 
C 1062 397 653 909 653 1645 
C 653 2304 1005 2758 1523 2758 
C 1754 2758 1837 2688 1901 2451 
L 1939 2310 
C 1990 2131 2106 2016 2240 2016 
C 2406 2016 2547 2138 2547 2285 
C 2547 2643 2099 2944 1562 2944 
C 1248 2944 922 2816 659 2586 
C 339 2304 160 1869 160 1363 
C 160 531 666 -64 1376 -64 
C 1664 -64 1920 38 2150 237 
C 2323 390 2445 563 2637 941 
L 2547 998 
z
" transform="scale(0.015625)"/>
       <path id="NimbusRomNo9L-ReguItal-71" d="M 2502 -1165 
L 2394 -1165 
C 2157 -1165 2022 -1101 2029 -980 
C 2029 -960 2035 -936 2042 -910 
L 3091 2721 
L 2624 2721 
L 2528 2426 
C 2426 2716 2298 2816 2035 2816 
C 1190 2816 160 1662 160 710 
C 160 264 410 -18 813 -18 
C 1267 -18 1562 215 2131 1014 
L 1562 -842 
C 1478 -1096 1376 -1146 960 -1178 
L 960 -1280 
L 2502 -1280 
L 2502 -1165 
z
M 2054 2676 
C 2266 2676 2432 2507 2432 2294 
C 2432 1776 1997 888 1562 532 
C 1395 395 1222 320 1069 320 
C 851 320 710 508 710 801 
C 710 1264 1043 1957 1459 2370 
C 1658 2563 1869 2676 2054 2676 
z
" transform="scale(0.015625)"/>
       <path id="NimbusRomNo9L-Regu-5b" d="M 1914 -864 
L 1363 -864 
C 1152 -864 1050 -756 1050 -531 
L 1050 3781 
C 1050 3981 1133 4064 1338 4064 
L 1914 4064 
L 1914 4224 
L 563 4224 
L 563 -1024 
L 1914 -1024 
L 1914 -864 
z
" transform="scale(0.015625)"/>
       <path id="NimbusRomNo9L-Regu-5d" d="M 218 -864 
L 218 -1024 
L 1568 -1024 
L 1568 4224 
L 218 4224 
L 218 4064 
L 768 4064 
C 979 4064 1082 3955 1082 3730 
L 1082 -582 
C 1082 -781 992 -864 794 -864 
L 218 -864 
z
" transform="scale(0.015625)"/>
      </defs>
      <use xlink:href="#NimbusRomNo9L-Regu-43" transform="scale(0.996264)"/>
      <use xlink:href="#NimbusRomNo9L-Regu-61" transform="translate(66.450031 0) scale(0.996264)"/>
      <use xlink:href="#NimbusRomNo9L-Regu-72" transform="translate(110.6836 0) scale(0.996264)"/>
      <use xlink:href="#NimbusRomNo9L-Regu-69" transform="translate(143.85883 0) scale(0.996264)"/>
      <use xlink:href="#NimbusRomNo9L-Regu-63" transform="translate(171.553999 0) scale(0.996264)"/>
      <use xlink:href="#NimbusRomNo9L-Regu-61" transform="translate(215.787568 0) scale(0.996264)"/>
      <use xlink:href="#NimbusRomNo9L-ReguItal-71" transform="translate(284.927737 0) scale(0.996264)"/>
      <use xlink:href="#NimbusRomNo9L-Regu-5b" transform="translate(359.647538 0) scale(0.996264)"/>
      <use xlink:href="#NimbusRomNo9L-Regu-43" transform="translate(392.822767 0) scale(0.996264)"/>
      <use xlink:href="#NimbusRomNo9L-Regu-5d" transform="translate(459.272798 0) scale(0.996264)"/>
     </g>
    </g>
    <g id="text_7">
     <!-- $\times\mathdefault{10^{−19}}\mathdefault{}$ -->
     <g transform="translate(189.571164 174.198019) scale(0.08 -0.08)">
      <defs>
       <path id="CMSY10-2" d="M 2490 1785 
L 1210 3059 
C 1133 3136 1120 3148 1069 3148 
C 1005 3148 941 3091 941 3020 
C 941 2976 954 2963 1024 2892 
L 2304 1606 
L 1024 320 
C 954 249 941 236 941 192 
C 941 121 1005 64 1069 64 
C 1120 64 1133 76 1210 153 
L 2483 1427 
L 3808 102 
C 3821 96 3866 64 3904 64 
C 3981 64 4032 121 4032 192 
C 4032 204 4032 230 4013 262 
C 4006 275 2989 1280 2669 1606 
L 3840 2777 
C 3872 2816 3968 2899 4000 2937 
C 4006 2950 4032 2976 4032 3020 
C 4032 3091 3981 3148 3904 3148 
C 3853 3148 3827 3123 3757 3052 
L 2490 1785 
z
" transform="scale(0.015625)"/>
       <path id="CMSY10-0" d="M 4218 1472 
C 4326 1472 4442 1472 4442 1600 
C 4442 1728 4326 1728 4218 1728 
L 755 1728 
C 646 1728 531 1728 531 1600 
C 531 1472 646 1472 755 1472 
L 4218 1472 
z
" transform="scale(0.015625)"/>
       <path id="NimbusRomNo9L-Regu-39" d="M 378 -123 
C 1094 -40 1446 82 1882 396 
C 2547 882 2938 1676 2938 2539 
C 2938 3593 2349 4339 1523 4339 
C 762 4339 192 3694 192 2832 
C 192 2053 653 1536 1344 1536 
C 1696 1536 1965 1638 2304 1900 
C 2042 856 1331 172 358 5 
L 378 -123 
z
M 2317 2290 
C 2317 2162 2291 2104 2221 2047 
C 2042 1894 1805 1811 1574 1811 
C 1088 1811 781 2290 781 3050 
C 781 3413 883 3796 1018 3963 
C 1126 4090 1286 4160 1472 4160 
C 2029 4160 2317 3611 2317 2539 
L 2317 2290 
z
" transform="scale(0.015625)"/>
      </defs>
      <use xlink:href="#CMSY10-2" transform="scale(0.996264)"/>
      <use xlink:href="#NimbusRomNo9L-Regu-31" transform="translate(77.408707 0) scale(0.996264)"/>
      <use xlink:href="#NimbusRomNo9L-Regu-30" transform="translate(127.221908 0) scale(0.996264)"/>
      <use xlink:href="#CMSY10-0" transform="translate(177.035108 36.163231) scale(0.737241)"/>
      <use xlink:href="#NimbusRomNo9L-Regu-31" transform="translate(234.317978 36.163231) scale(0.737241)"/>
      <use xlink:href="#NimbusRomNo9L-Regu-39" transform="translate(271.18002 36.163231) scale(0.737241)"/>
     </g>
    </g>
   </g>
   <g id="matplotlib.axis_2">
    <g id="ytick_1">
     <g id="line2d_52">
      <path d="M 30.216059 154.333486 
L 214.356059 154.333486 
" clip-path="url(#p2ef00d2b9e)" style="fill: none; stroke-dasharray: 1.85,0.8; stroke-dashoffset: 0; stroke: #000000; stroke-opacity: 0.5; stroke-width: 0.5"/>
     </g>
     <g id="line2d_53">
      <defs>
       <path id="me69e1726a9" d="M 0 0 
L 3 0 
" style="stroke: #000000; stroke-width: 0.5"/>
      </defs>
      <g>
       <use xlink:href="#me69e1726a9" x="30.216059" y="154.333486" style="stroke: #000000; stroke-width: 0.5"/>
      </g>
     </g>
     <g id="line2d_54">
      <defs>
       <path id="mcda7a22e46" d="M 0 0 
L -3 0 
" style="stroke: #000000; stroke-width: 0.5"/>
      </defs>
      <g>
       <use xlink:href="#mcda7a22e46" x="214.356059" y="154.333486" style="stroke: #000000; stroke-width: 0.5"/>
      </g>
     </g>
     <g id="text_8">
      <!-- $\mathdefault{2.5}$ -->
      <g transform="translate(16.538314 157.035314) scale(0.08 -0.08)">
       <defs>
        <path id="NimbusRomNo9L-Regu-32" d="M 3040 875 
L 2957 907 
C 2720 544 2637 486 2349 486 
L 819 486 
L 1894 1609 
C 2464 2202 2714 2687 2714 3185 
C 2714 3823 2195 4313 1530 4313 
C 1178 4313 845 4173 608 3918 
C 403 3700 307 3496 198 3043 
L 333 3011 
C 589 3636 819 3840 1261 3840 
C 1798 3840 2163 3476 2163 2940 
C 2163 2443 1869 1850 1331 1282 
L 192 77 
L 192 0 
L 2688 0 
L 3040 875 
z
" transform="scale(0.015625)"/>
       </defs>
       <use xlink:href="#NimbusRomNo9L-Regu-32" transform="scale(0.996264)"/>
       <use xlink:href="#CMMI10-3a" transform="translate(49.8132 0) scale(0.996264)"/>
       <use xlink:href="#NimbusRomNo9L-Regu-35" transform="translate(77.408707 0) scale(0.996264)"/>
      </g>
     </g>
    </g>
    <g id="ytick_2">
     <g id="line2d_55">
      <path d="M 30.216059 132.276355 
L 214.356059 132.276355 
" clip-path="url(#p2ef00d2b9e)" style="fill: none; stroke-dasharray: 1.85,0.8; stroke-dashoffset: 0; stroke: #000000; stroke-opacity: 0.5; stroke-width: 0.5"/>
     </g>
     <g id="line2d_56">
      <g>
       <use xlink:href="#me69e1726a9" x="30.216059" y="132.276355" style="stroke: #000000; stroke-width: 0.5"/>
      </g>
     </g>
     <g id="line2d_57">
      <g>
       <use xlink:href="#mcda7a22e46" x="214.356059" y="132.276355" style="stroke: #000000; stroke-width: 0.5"/>
      </g>
     </g>
     <g id="text_9">
      <!-- $\mathdefault{3.0}$ -->
      <g transform="translate(16.538314 134.978183) scale(0.08 -0.08)">
       <defs>
        <path id="NimbusRomNo9L-Regu-33" d="M 979 2138 
C 1357 2138 1504 2125 1658 2068 
C 2054 1927 2304 1562 2304 1120 
C 2304 583 1939 167 1466 167 
C 1293 167 1165 212 928 365 
C 736 480 627 525 518 525 
C 371 525 275 436 275 301 
C 275 77 550 -64 998 -64 
C 1491 -64 1997 103 2298 365 
C 2598 628 2765 999 2765 1428 
C 2765 1754 2662 2055 2477 2253 
C 2349 2394 2227 2471 1946 2592 
C 2387 2893 2547 3130 2547 3476 
C 2547 3994 2138 4352 1549 4352 
C 1229 4352 947 4244 717 4039 
C 525 3866 429 3699 288 3315 
L 384 3290 
C 646 3757 934 3968 1338 3968 
C 1754 3968 2042 3687 2042 3284 
C 2042 3053 1946 2823 1786 2663 
C 1594 2471 1414 2375 979 2221 
L 979 2138 
z
" transform="scale(0.015625)"/>
       </defs>
       <use xlink:href="#NimbusRomNo9L-Regu-33" transform="scale(0.996264)"/>
       <use xlink:href="#CMMI10-3a" transform="translate(49.8132 0) scale(0.996264)"/>
       <use xlink:href="#NimbusRomNo9L-Regu-30" transform="translate(77.408707 0) scale(0.996264)"/>
      </g>
     </g>
    </g>
    <g id="ytick_3">
     <g id="line2d_58">
      <path d="M 30.216059 110.219224 
L 214.356059 110.219224 
" clip-path="url(#p2ef00d2b9e)" style="fill: none; stroke-dasharray: 1.85,0.8; stroke-dashoffset: 0; stroke: #000000; stroke-opacity: 0.5; stroke-width: 0.5"/>
     </g>
     <g id="line2d_59">
      <g>
       <use xlink:href="#me69e1726a9" x="30.216059" y="110.219224" style="stroke: #000000; stroke-width: 0.5"/>
      </g>
     </g>
     <g id="line2d_60">
      <g>
       <use xlink:href="#mcda7a22e46" x="214.356059" y="110.219224" style="stroke: #000000; stroke-width: 0.5"/>
      </g>
     </g>
     <g id="text_10">
      <!-- $\mathdefault{3.5}$ -->
      <g transform="translate(16.538314 112.921052) scale(0.08 -0.08)">
       <use xlink:href="#NimbusRomNo9L-Regu-33" transform="scale(0.996264)"/>
       <use xlink:href="#CMMI10-3a" transform="translate(49.8132 0) scale(0.996264)"/>
       <use xlink:href="#NimbusRomNo9L-Regu-35" transform="translate(77.408707 0) scale(0.996264)"/>
      </g>
     </g>
    </g>
    <g id="ytick_4">
     <g id="line2d_61">
      <path d="M 30.216059 88.162093 
L 214.356059 88.162093 
" clip-path="url(#p2ef00d2b9e)" style="fill: none; stroke-dasharray: 1.85,0.8; stroke-dashoffset: 0; stroke: #000000; stroke-opacity: 0.5; stroke-width: 0.5"/>
     </g>
     <g id="line2d_62">
      <g>
       <use xlink:href="#me69e1726a9" x="30.216059" y="88.162093" style="stroke: #000000; stroke-width: 0.5"/>
      </g>
     </g>
     <g id="line2d_63">
      <g>
       <use xlink:href="#mcda7a22e46" x="214.356059" y="88.162093" style="stroke: #000000; stroke-width: 0.5"/>
      </g>
     </g>
     <g id="text_11">
      <!-- $\mathdefault{4.0}$ -->
      <g transform="translate(16.538314 90.863921) scale(0.08 -0.08)">
       <defs>
        <path id="NimbusRomNo9L-Regu-34" d="M 3021 1497 
L 2368 1497 
L 2368 4352 
L 2086 4352 
L 77 1497 
L 77 1088 
L 1875 1088 
L 1875 32 
L 2368 32 
L 2368 1088 
L 3021 1088 
L 3021 1497 
z
M 1869 1497 
L 333 1497 
L 1869 3698 
L 1869 1497 
z
" transform="scale(0.015625)"/>
       </defs>
       <use xlink:href="#NimbusRomNo9L-Regu-34" transform="scale(0.996264)"/>
       <use xlink:href="#CMMI10-3a" transform="translate(49.8132 0) scale(0.996264)"/>
       <use xlink:href="#NimbusRomNo9L-Regu-30" transform="translate(77.408707 0) scale(0.996264)"/>
      </g>
     </g>
    </g>
    <g id="ytick_5">
     <g id="line2d_64">
      <path d="M 30.216059 66.104962 
L 214.356059 66.104962 
" clip-path="url(#p2ef00d2b9e)" style="fill: none; stroke-dasharray: 1.85,0.8; stroke-dashoffset: 0; stroke: #000000; stroke-opacity: 0.5; stroke-width: 0.5"/>
     </g>
     <g id="line2d_65">
      <g>
       <use xlink:href="#me69e1726a9" x="30.216059" y="66.104962" style="stroke: #000000; stroke-width: 0.5"/>
      </g>
     </g>
     <g id="line2d_66">
      <g>
       <use xlink:href="#mcda7a22e46" x="214.356059" y="66.104962" style="stroke: #000000; stroke-width: 0.5"/>
      </g>
     </g>
     <g id="text_12">
      <!-- $\mathdefault{4.5}$ -->
      <g transform="translate(16.538314 68.80679) scale(0.08 -0.08)">
       <use xlink:href="#NimbusRomNo9L-Regu-34" transform="scale(0.996264)"/>
       <use xlink:href="#CMMI10-3a" transform="translate(49.8132 0) scale(0.996264)"/>
       <use xlink:href="#NimbusRomNo9L-Regu-35" transform="translate(77.408707 0) scale(0.996264)"/>
      </g>
     </g>
    </g>
    <g id="ytick_6">
     <g id="line2d_67">
      <path d="M 30.216059 44.047832 
L 214.356059 44.047832 
" clip-path="url(#p2ef00d2b9e)" style="fill: none; stroke-dasharray: 1.85,0.8; stroke-dashoffset: 0; stroke: #000000; stroke-opacity: 0.5; stroke-width: 0.5"/>
     </g>
     <g id="line2d_68">
      <g>
       <use xlink:href="#me69e1726a9" x="30.216059" y="44.047832" style="stroke: #000000; stroke-width: 0.5"/>
      </g>
     </g>
     <g id="line2d_69">
      <g>
       <use xlink:href="#mcda7a22e46" x="214.356059" y="44.047832" style="stroke: #000000; stroke-width: 0.5"/>
      </g>
     </g>
     <g id="text_13">
      <!-- $\mathdefault{5.0}$ -->
      <g transform="translate(16.538314 46.74966) scale(0.08 -0.08)">
       <use xlink:href="#NimbusRomNo9L-Regu-35" transform="scale(0.996264)"/>
       <use xlink:href="#CMMI10-3a" transform="translate(49.8132 0) scale(0.996264)"/>
       <use xlink:href="#NimbusRomNo9L-Regu-30" transform="translate(77.408707 0) scale(0.996264)"/>
      </g>
     </g>
    </g>
    <g id="ytick_7">
     <g id="line2d_70">
      <path d="M 30.216059 21.990701 
L 214.356059 21.990701 
" clip-path="url(#p2ef00d2b9e)" style="fill: none; stroke-dasharray: 1.85,0.8; stroke-dashoffset: 0; stroke: #000000; stroke-opacity: 0.5; stroke-width: 0.5"/>
     </g>
     <g id="line2d_71">
      <g>
       <use xlink:href="#me69e1726a9" x="30.216059" y="21.990701" style="stroke: #000000; stroke-width: 0.5"/>
      </g>
     </g>
     <g id="line2d_72">
      <g>
       <use xlink:href="#mcda7a22e46" x="214.356059" y="21.990701" style="stroke: #000000; stroke-width: 0.5"/>
      </g>
     </g>
     <g id="text_14">
      <!-- $\mathdefault{5.5}$ -->
      <g transform="translate(16.538314 24.692529) scale(0.08 -0.08)">
       <use xlink:href="#NimbusRomNo9L-Regu-35" transform="scale(0.996264)"/>
       <use xlink:href="#CMMI10-3a" transform="translate(49.8132 0) scale(0.996264)"/>
       <use xlink:href="#NimbusRomNo9L-Regu-35" transform="translate(77.408707 0) scale(0.996264)"/>
      </g>
     </g>
    </g>
    <g id="ytick_8">
     <g id="line2d_73">
      <defs>
       <path id="m48b0278934" d="M 0 0 
L 1.5 0 
" style="stroke: #000000; stroke-width: 0.5"/>
      </defs>
      <g>
       <use xlink:href="#m48b0278934" x="30.216059" y="149.92206" style="stroke: #000000; stroke-width: 0.5"/>
      </g>
     </g>
     <g id="line2d_74">
      <defs>
       <path id="mbbef530218" d="M 0 0 
L -1.5 0 
" style="stroke: #000000; stroke-width: 0.5"/>
      </defs>
      <g>
       <use xlink:href="#mbbef530218" x="214.356059" y="149.92206" style="stroke: #000000; stroke-width: 0.5"/>
      </g>
     </g>
    </g>
    <g id="ytick_9">
     <g id="line2d_75">
      <g>
       <use xlink:href="#m48b0278934" x="30.216059" y="145.510634" style="stroke: #000000; stroke-width: 0.5"/>
      </g>
     </g>
     <g id="line2d_76">
      <g>
       <use xlink:href="#mbbef530218" x="214.356059" y="145.510634" style="stroke: #000000; stroke-width: 0.5"/>
      </g>
     </g>
    </g>
    <g id="ytick_10">
     <g id="line2d_77">
      <g>
       <use xlink:href="#m48b0278934" x="30.216059" y="141.099207" style="stroke: #000000; stroke-width: 0.5"/>
      </g>
     </g>
     <g id="line2d_78">
      <g>
       <use xlink:href="#mbbef530218" x="214.356059" y="141.099207" style="stroke: #000000; stroke-width: 0.5"/>
      </g>
     </g>
    </g>
    <g id="ytick_11">
     <g id="line2d_79">
      <g>
       <use xlink:href="#m48b0278934" x="30.216059" y="136.687781" style="stroke: #000000; stroke-width: 0.5"/>
      </g>
     </g>
     <g id="line2d_80">
      <g>
       <use xlink:href="#mbbef530218" x="214.356059" y="136.687781" style="stroke: #000000; stroke-width: 0.5"/>
      </g>
     </g>
    </g>
    <g id="ytick_12">
     <g id="line2d_81">
      <g>
       <use xlink:href="#m48b0278934" x="30.216059" y="127.864929" style="stroke: #000000; stroke-width: 0.5"/>
      </g>
     </g>
     <g id="line2d_82">
      <g>
       <use xlink:href="#mbbef530218" x="214.356059" y="127.864929" style="stroke: #000000; stroke-width: 0.5"/>
      </g>
     </g>
    </g>
    <g id="ytick_13">
     <g id="line2d_83">
      <g>
       <use xlink:href="#m48b0278934" x="30.216059" y="123.453503" style="stroke: #000000; stroke-width: 0.5"/>
      </g>
     </g>
     <g id="line2d_84">
      <g>
       <use xlink:href="#mbbef530218" x="214.356059" y="123.453503" style="stroke: #000000; stroke-width: 0.5"/>
      </g>
     </g>
    </g>
    <g id="ytick_14">
     <g id="line2d_85">
      <g>
       <use xlink:href="#m48b0278934" x="30.216059" y="119.042077" style="stroke: #000000; stroke-width: 0.5"/>
      </g>
     </g>
     <g id="line2d_86">
      <g>
       <use xlink:href="#mbbef530218" x="214.356059" y="119.042077" style="stroke: #000000; stroke-width: 0.5"/>
      </g>
     </g>
    </g>
    <g id="ytick_15">
     <g id="line2d_87">
      <g>
       <use xlink:href="#m48b0278934" x="30.216059" y="114.63065" style="stroke: #000000; stroke-width: 0.5"/>
      </g>
     </g>
     <g id="line2d_88">
      <g>
       <use xlink:href="#mbbef530218" x="214.356059" y="114.63065" style="stroke: #000000; stroke-width: 0.5"/>
      </g>
     </g>
    </g>
    <g id="ytick_16">
     <g id="line2d_89">
      <g>
       <use xlink:href="#m48b0278934" x="30.216059" y="105.807798" style="stroke: #000000; stroke-width: 0.5"/>
      </g>
     </g>
     <g id="line2d_90">
      <g>
       <use xlink:href="#mbbef530218" x="214.356059" y="105.807798" style="stroke: #000000; stroke-width: 0.5"/>
      </g>
     </g>
    </g>
    <g id="ytick_17">
     <g id="line2d_91">
      <g>
       <use xlink:href="#m48b0278934" x="30.216059" y="101.396372" style="stroke: #000000; stroke-width: 0.5"/>
      </g>
     </g>
     <g id="line2d_92">
      <g>
       <use xlink:href="#mbbef530218" x="214.356059" y="101.396372" style="stroke: #000000; stroke-width: 0.5"/>
      </g>
     </g>
    </g>
    <g id="ytick_18">
     <g id="line2d_93">
      <g>
       <use xlink:href="#m48b0278934" x="30.216059" y="96.984946" style="stroke: #000000; stroke-width: 0.5"/>
      </g>
     </g>
     <g id="line2d_94">
      <g>
       <use xlink:href="#mbbef530218" x="214.356059" y="96.984946" style="stroke: #000000; stroke-width: 0.5"/>
      </g>
     </g>
    </g>
    <g id="ytick_19">
     <g id="line2d_95">
      <g>
       <use xlink:href="#m48b0278934" x="30.216059" y="92.57352" style="stroke: #000000; stroke-width: 0.5"/>
      </g>
     </g>
     <g id="line2d_96">
      <g>
       <use xlink:href="#mbbef530218" x="214.356059" y="92.57352" style="stroke: #000000; stroke-width: 0.5"/>
      </g>
     </g>
    </g>
    <g id="ytick_20">
     <g id="line2d_97">
      <g>
       <use xlink:href="#m48b0278934" x="30.216059" y="83.750667" style="stroke: #000000; stroke-width: 0.5"/>
      </g>
     </g>
     <g id="line2d_98">
      <g>
       <use xlink:href="#mbbef530218" x="214.356059" y="83.750667" style="stroke: #000000; stroke-width: 0.5"/>
      </g>
     </g>
    </g>
    <g id="ytick_21">
     <g id="line2d_99">
      <g>
       <use xlink:href="#m48b0278934" x="30.216059" y="79.339241" style="stroke: #000000; stroke-width: 0.5"/>
      </g>
     </g>
     <g id="line2d_100">
      <g>
       <use xlink:href="#mbbef530218" x="214.356059" y="79.339241" style="stroke: #000000; stroke-width: 0.5"/>
      </g>
     </g>
    </g>
    <g id="ytick_22">
     <g id="line2d_101">
      <g>
       <use xlink:href="#m48b0278934" x="30.216059" y="74.927815" style="stroke: #000000; stroke-width: 0.5"/>
      </g>
     </g>
     <g id="line2d_102">
      <g>
       <use xlink:href="#mbbef530218" x="214.356059" y="74.927815" style="stroke: #000000; stroke-width: 0.5"/>
      </g>
     </g>
    </g>
    <g id="ytick_23">
     <g id="line2d_103">
      <g>
       <use xlink:href="#m48b0278934" x="30.216059" y="70.516389" style="stroke: #000000; stroke-width: 0.5"/>
      </g>
     </g>
     <g id="line2d_104">
      <g>
       <use xlink:href="#mbbef530218" x="214.356059" y="70.516389" style="stroke: #000000; stroke-width: 0.5"/>
      </g>
     </g>
    </g>
    <g id="ytick_24">
     <g id="line2d_105">
      <g>
       <use xlink:href="#m48b0278934" x="30.216059" y="61.693536" style="stroke: #000000; stroke-width: 0.5"/>
      </g>
     </g>
     <g id="line2d_106">
      <g>
       <use xlink:href="#mbbef530218" x="214.356059" y="61.693536" style="stroke: #000000; stroke-width: 0.5"/>
      </g>
     </g>
    </g>
    <g id="ytick_25">
     <g id="line2d_107">
      <g>
       <use xlink:href="#m48b0278934" x="30.216059" y="57.28211" style="stroke: #000000; stroke-width: 0.5"/>
      </g>
     </g>
     <g id="line2d_108">
      <g>
       <use xlink:href="#mbbef530218" x="214.356059" y="57.28211" style="stroke: #000000; stroke-width: 0.5"/>
      </g>
     </g>
    </g>
    <g id="ytick_26">
     <g id="line2d_109">
      <g>
       <use xlink:href="#m48b0278934" x="30.216059" y="52.870684" style="stroke: #000000; stroke-width: 0.5"/>
      </g>
     </g>
     <g id="line2d_110">
      <g>
       <use xlink:href="#mbbef530218" x="214.356059" y="52.870684" style="stroke: #000000; stroke-width: 0.5"/>
      </g>
     </g>
    </g>
    <g id="ytick_27">
     <g id="line2d_111">
      <g>
       <use xlink:href="#m48b0278934" x="30.216059" y="48.459258" style="stroke: #000000; stroke-width: 0.5"/>
      </g>
     </g>
     <g id="line2d_112">
      <g>
       <use xlink:href="#mbbef530218" x="214.356059" y="48.459258" style="stroke: #000000; stroke-width: 0.5"/>
      </g>
     </g>
    </g>
    <g id="ytick_28">
     <g id="line2d_113">
      <g>
       <use xlink:href="#m48b0278934" x="30.216059" y="39.636405" style="stroke: #000000; stroke-width: 0.5"/>
      </g>
     </g>
     <g id="line2d_114">
      <g>
       <use xlink:href="#mbbef530218" x="214.356059" y="39.636405" style="stroke: #000000; stroke-width: 0.5"/>
      </g>
     </g>
    </g>
    <g id="ytick_29">
     <g id="line2d_115">
      <g>
       <use xlink:href="#m48b0278934" x="30.216059" y="35.224979" style="stroke: #000000; stroke-width: 0.5"/>
      </g>
     </g>
     <g id="line2d_116">
      <g>
       <use xlink:href="#mbbef530218" x="214.356059" y="35.224979" style="stroke: #000000; stroke-width: 0.5"/>
      </g>
     </g>
    </g>
    <g id="ytick_30">
     <g id="line2d_117">
      <g>
       <use xlink:href="#m48b0278934" x="30.216059" y="30.813553" style="stroke: #000000; stroke-width: 0.5"/>
      </g>
     </g>
     <g id="line2d_118">
      <g>
       <use xlink:href="#mbbef530218" x="214.356059" y="30.813553" style="stroke: #000000; stroke-width: 0.5"/>
      </g>
     </g>
    </g>
    <g id="ytick_31">
     <g id="line2d_119">
      <g>
       <use xlink:href="#m48b0278934" x="30.216059" y="26.402127" style="stroke: #000000; stroke-width: 0.5"/>
      </g>
     </g>
     <g id="line2d_120">
      <g>
       <use xlink:href="#mbbef530218" x="214.356059" y="26.402127" style="stroke: #000000; stroke-width: 0.5"/>
      </g>
     </g>
    </g>
    <g id="ytick_32">
     <g id="line2d_121">
      <g>
       <use xlink:href="#m48b0278934" x="30.216059" y="17.579275" style="stroke: #000000; stroke-width: 0.5"/>
      </g>
     </g>
     <g id="line2d_122">
      <g>
       <use xlink:href="#mbbef530218" x="214.356059" y="17.579275" style="stroke: #000000; stroke-width: 0.5"/>
      </g>
     </g>
    </g>
    <g id="text_15">
     <!-- $S(q)$ [C$^2$] -->
     <g transform="translate(10.545786 100.545362) rotate(-90) scale(0.08 -0.08)">
      <defs>
       <path id="NimbusRomNo9L-ReguItal-53" d="M 2995 3015 
L 3251 4288 
L 3104 4288 
C 3014 4154 2957 4122 2816 4122 
C 2739 4122 2669 4142 2522 4195 
C 2381 4255 2176 4288 1978 4288 
C 1312 4288 838 3846 838 3218 
C 838 2872 934 2686 1318 2275 
C 1376 2218 1459 2128 1568 2006 
C 1683 1884 1773 1788 1818 1737 
C 2118 1423 2202 1256 2202 980 
C 2202 499 1843 128 1376 128 
C 845 128 442 582 442 1191 
C 442 1242 448 1293 454 1338 
L 326 1350 
L 109 -77 
L 224 -77 
C 269 70 339 134 467 134 
C 538 134 634 108 800 51 
C 1094 -58 1267 -96 1466 -96 
C 2202 -96 2758 461 2758 1184 
C 2758 1600 2611 1850 2035 2432 
C 1459 3015 1402 3104 1402 3418 
C 1402 3821 1670 4071 2106 4071 
C 2342 4071 2541 3988 2675 3834 
C 2816 3674 2867 3456 2880 3034 
L 2995 3015 
z
" transform="scale(0.015625)"/>
       <path id="CMR10-28" d="M 2118 -1536 
C 2118 -1517 2118 -1504 2010 -1395 
C 1210 -584 1005 632 1005 1616 
C 1005 2735 1248 3855 2035 4658 
C 2118 4735 2118 4748 2118 4767 
C 2118 4812 2093 4832 2054 4832 
C 1990 4832 1414 4395 1037 3577 
C 710 2870 634 2156 634 1616 
C 634 1114 704 336 1056 -391 
C 1440 -1182 1990 -1600 2054 -1600 
C 2093 -1600 2118 -1581 2118 -1536 
z
" transform="scale(0.015625)"/>
       <path id="CMR10-29" d="M 1850 1616 
C 1850 2118 1779 2896 1427 3622 
C 1043 4414 493 4832 429 4832 
C 390 4832 365 4806 365 4767 
C 365 4748 365 4735 486 4620 
C 1114 3983 1478 2960 1478 1616 
C 1478 516 1242 -617 448 -1427 
C 365 -1504 365 -1517 365 -1536 
C 365 -1575 390 -1600 429 -1600 
C 493 -1600 1069 -1163 1446 -346 
C 1773 362 1850 1075 1850 1616 
z
" transform="scale(0.015625)"/>
      </defs>
      <use xlink:href="#NimbusRomNo9L-ReguItal-53" transform="scale(0.996264)"/>
      <use xlink:href="#CMR10-28" transform="translate(50.609774 0) scale(0.996264)"/>
      <use xlink:href="#NimbusRomNo9L-ReguItal-71" transform="translate(89.26362 0) scale(0.996264)"/>
      <use xlink:href="#CMR10-29" transform="translate(139.07682 0) scale(0.996264)"/>
      <use xlink:href="#NimbusRomNo9L-Regu-5b" transform="translate(202.637266 0) scale(0.996264)"/>
      <use xlink:href="#NimbusRomNo9L-Regu-43" transform="translate(235.812496 0) scale(0.996264)"/>
      <use xlink:href="#NimbusRomNo9L-Regu-32" transform="translate(302.262527 36.163231) scale(0.737241)"/>
      <use xlink:href="#NimbusRomNo9L-Regu-5d" transform="translate(339.622701 0) scale(0.996264)"/>
     </g>
    </g>
    <g id="text_16">
     <!-- $\times\mathdefault{10^{−38}}\mathdefault{}$ -->
     <g transform="translate(30.216059 13.084396) scale(0.08 -0.08)">
      <defs>
       <path id="NimbusRomNo9L-Regu-38" d="M 1856 2400 
C 2490 2740 2714 3008 2714 3444 
C 2714 3968 2253 4352 1613 4352 
C 915 4352 397 3924 397 3341 
C 397 2925 518 2740 1190 2151 
C 499 1626 358 1428 358 992 
C 358 372 864 -64 1587 -64 
C 2355 -64 2848 359 2848 1018 
C 2848 1511 2630 1824 1856 2400 
z
M 1741 1741 
C 2208 1408 2362 1178 2362 820 
C 2362 404 2074 116 1658 116 
C 1171 116 845 487 845 1044 
C 845 1453 986 1722 1357 2023 
L 1741 1741 
z
M 1670 2516 
C 1101 2887 870 3181 870 3540 
C 870 3911 1158 4173 1562 4173 
C 1997 4173 2272 3892 2272 3450 
C 2272 3085 2093 2797 1728 2554 
C 1696 2535 1696 2535 1670 2516 
z
" transform="scale(0.015625)"/>
      </defs>
      <use xlink:href="#CMSY10-2" transform="scale(0.996264)"/>
      <use xlink:href="#NimbusRomNo9L-Regu-31" transform="translate(77.408707 0) scale(0.996264)"/>
      <use xlink:href="#NimbusRomNo9L-Regu-30" transform="translate(127.221908 0) scale(0.996264)"/>
      <use xlink:href="#CMSY10-0" transform="translate(177.035108 36.163231) scale(0.737241)"/>
      <use xlink:href="#NimbusRomNo9L-Regu-33" transform="translate(234.317978 36.163231) scale(0.737241)"/>
      <use xlink:href="#NimbusRomNo9L-Regu-38" transform="translate(271.18002 36.163231) scale(0.737241)"/>
     </g>
    </g>
   </g>
   <g id="line2d_123">
    <path d="M 38.586059 146.682803 
L 39.367519 146.93957 
L 39.534975 146.852084 
L 41.209533 147.551456 
L 41.321171 147.515355 
L 42.995729 148.098787 
L 43.219003 148.14926 
L 43.609733 148.290617 
L 43.665552 148.006064 
L 43.721371 148.027202 
L 44.726106 148.384396 
L 44.781924 144.922728 
L 44.837743 144.944838 
L 45.507566 145.199538 
L 45.563385 145.03511 
L 45.619203 145.056687 
L 47.684492 145.759326 
L 47.851948 145.751809 
L 48.633408 145.976483 
L 48.689227 145.424363 
L 48.745045 145.441256 
L 50.642878 145.895329 
L 52.429073 146.200324 
L 52.596529 146.110571 
L 53.601264 146.274392 
L 53.657083 145.662496 
L 53.712901 145.673443 
L 54.773455 145.855554 
L 54.885092 144.452187 
L 54.940911 144.464129 
L 57.229473 144.836514 
L 58.56912 144.948292 
L 58.680757 144.833776 
L 58.736576 141.28208 
L 58.792394 141.289564 
L 58.95985 141.228828 
L 59.015669 140.661831 
L 59.071487 140.671711 
L 59.797129 140.787763 
L 59.908766 140.492268 
L 61.918236 140.722539 
L 62.085692 140.558295 
L 64.039343 140.694884 
L 64.541711 140.641537 
L 64.709167 140.469503 
L 64.764985 139.894446 
L 64.820804 139.901154 
L 64.98826 139.920462 
L 65.155715 139.8176 
L 66.830274 139.917591 
L 67.500097 139.877995 
L 67.667553 139.828874 
L 68.225739 139.860803 
L 68.393195 139.745899 
L 70.011934 139.746679 
L 70.067753 136.128572 
L 70.123571 136.132366 
L 71.128306 136.177366 
L 71.351581 135.364325 
L 71.742311 135.399149 
L 71.853948 135.172946 
L 72.244678 135.21506 
L 72.356316 134.908839 
L 74.086692 135.034813 
L 74.254148 134.92292 
L 74.309967 133.652204 
L 74.365785 133.659028 
L 75.426339 133.712143 
L 75.593795 133.642878 
L 76.151981 133.693979 
L 76.319437 133.499603 
L 77.100897 133.574618 
L 77.268353 133.464736 
L 77.882358 133.435463 
L 78.105632 133.421652 
L 80.226739 133.514854 
L 80.338376 132.232021 
L 82.068753 132.192544 
L 82.236209 132.104265 
L 83.352581 131.997189 
L 83.520037 131.930395 
L 85.194595 131.774218 
L 86.310967 131.608155 
L 86.478423 130.905476 
L 87.929707 130.76199 
L 88.097163 130.610661 
L 88.2088 130.598911 
L 88.376256 130.245293 
L 88.543711 130.236044 
L 88.711167 130.100745 
L 88.934442 130.089789 
L 89.101898 129.885512 
L 90.497363 129.740534 
L 90.664819 129.401679 
L 92.506833 129.185606 
L 92.730107 128.634334 
L 93.065019 128.606658 
L 93.176656 127.286707 
L 94.237209 127.212589 
L 94.404665 127.000767 
L 95.465219 126.819551 
L 95.632674 126.740662 
L 97.474688 126.49791 
L 97.642144 126.140791 
L 97.8096 125.884048 
L 98.367786 125.812336 
L 98.535242 125.660899 
L 100.265619 125.332691 
L 100.321437 125.275143 
L 100.488893 123.925636 
L 101.995996 123.618531 
L 103.893828 123.171257 
L 104.061284 122.797513 
L 104.172921 122.772493 
L 104.340377 121.40505 
L 104.675289 121.340522 
L 104.842744 120.910786 
L 106.182391 120.583554 
L 106.23821 120.572428 
L 106.405665 119.204127 
L 107.577856 118.987421 
L 107.745312 118.863349 
L 108.526772 118.69519 
L 108.694228 117.317174 
L 109.364052 117.179507 
L 109.531507 115.802249 
L 110.312968 115.566922 
L 110.480424 115.356488 
L 110.926973 115.190014 
L 111.094428 114.897901 
L 111.261884 114.540915 
L 111.540977 114.510955 
L 111.708433 114.362092 
L 113.494628 114.07539 
L 114.276089 113.874505 
L 114.499363 113.7075 
L 115.169187 113.596389 
L 115.336642 113.227732 
L 116.62047 112.990057 
L 116.787926 112.822593 
L 118.462484 112.398812 
L 118.741577 112.079966 
L 119.523038 111.901355 
L 119.690494 111.519926 
L 119.969587 111.456239 
L 120.137043 111.008428 
L 120.192861 110.997782 
L 120.360317 110.834177 
L 120.583591 110.793635 
L 120.751047 109.399355 
L 121.644145 109.252744 
L 121.811601 109.017782 
L 121.923238 108.999101 
L 122.090694 108.83782 
L 122.146512 108.829127 
L 122.313968 107.43704 
L 122.816336 107.373709 
L 122.983791 107.145549 
L 124.435075 106.879458 
L 124.65835 106.807061 
L 125.383992 106.680258 
L 125.551447 105.276033 
L 125.774722 105.241762 
L 125.942178 104.992317 
L 127.784192 104.691467 
L 127.951647 104.450084 
L 129.905299 103.986721 
L 130.072754 103.736556 
L 130.24021 103.562865 
L 131.579857 103.151636 
L 131.803131 103.092351 
L 131.970587 102.838954 
L 133.254415 102.449003 
L 133.477689 102.201871 
L 134.538243 101.81021 
L 135.710434 101.406574 
L 135.87789 101.217856 
L 136.212801 101.112699 
L 136.436076 99.753559 
L 136.770987 99.665917 
L 136.938443 99.484862 
L 138.445545 99.010376 
L 138.724638 98.889869 
L 138.780457 98.873129 
L 138.947913 98.619981 
L 141.124839 97.934005 
L 141.292294 96.374687 
L 141.348113 96.357878 
L 141.515569 96.171444 
L 143.245946 95.557851 
L 143.971587 95.251466 
L 144.139043 93.779321 
L 145.47869 93.284041 
L 145.646146 92.35929 
L 147.320704 91.793411 
L 147.48816 91.517796 
L 147.599797 91.477865 
L 147.767253 91.06226 
L 147.934708 91.005393 
L 148.102164 90.810557 
L 148.604532 90.640492 
L 148.771988 90.444455 
L 148.995262 90.272708 
L 149.051081 90.216594 
L 149.218536 89.809037 
L 149.776722 89.642325 
L 149.999997 86.732541 
L 151.004732 86.489224 
L 151.172188 85.019364 
L 151.395462 84.875181 
L 151.89783 84.53204 
L 153.125839 84.282624 
L 153.293295 82.814556 
L 153.46075 82.426699 
L 154.242211 82.286279 
L 154.409667 81.592588 
L 154.577123 81.206112 
L 156.865685 80.769252 
L 157.312234 80.657324 
L 157.47969 80.450881 
L 157.982058 80.330312 
L 158.149513 80.071838 
L 158.707699 79.93581 
L 158.875155 79.684363 
L 159.48916 79.539989 
L 159.656616 79.138273 
L 161.331174 78.647482 
L 162.168453 78.398598 
L 162.391727 77.969129 
L 163.005732 77.730212 
L 163.229007 77.617368 
L 165.126839 77.013299 
L 165.294295 76.734075 
L 166.243211 76.3281 
L 166.410667 76.047854 
L 167.192128 75.76601 
L 167.359583 74.244575 
L 167.917769 74.051213 
L 168.085225 73.849116 
L 170.429607 72.925916 
L 170.876156 72.722836 
L 171.043611 71.176734 
L 171.545979 70.860973 
L 171.713435 70.692726 
L 171.992528 70.5098 
L 172.159984 70.34499 
L 173.722905 69.683231 
L 173.89036 69.411172 
L 175.174188 68.76701 
L 175.341644 67.212956 
L 175.397463 67.189594 
L 175.564919 62.517929 
L 176.29056 62.27287 
L 176.458016 60.733701 
L 176.681291 60.663461 
L 176.848746 60.467008 
L 176.960384 56.191005 
L 177.630207 56.023779 
L 177.797663 55.60956 
L 179.639677 55.094423 
L 179.807133 53.554016 
L 180.811868 53.254726 
L 180.979323 53.056365 
L 183.267886 52.247171 
L 184.384258 51.709033 
L 184.551714 51.537063 
L 185.165719 51.179773 
L 185.333175 51.008685 
L 187.11937 50.150901 
L 189.463751 48.923999 
L 191.194128 47.864365 
L 191.361584 47.378562 
L 191.584859 47.237929 
L 191.752314 46.754536 
L 192.980324 45.973062 
L 193.147779 45.715455 
L 194.822338 44.498089 
L 195.268887 44.180631 
L 195.436342 43.679637 
L 195.882891 43.364757 
L 196.050347 43.016905 
L 196.217803 42.899964 
L 196.385259 42.402172 
L 196.775989 42.03782 
L 196.943445 41.697226 
L 198.562184 40.583724 
L 198.72964 40.233268 
L 199.678556 39.546523 
L 199.846012 37.89188 
L 200.013468 37.774093 
L 200.236742 37.320277 
L 200.404198 35.679267 
L 200.962384 35.324001 
L 201.12984 34.916774 
L 201.297296 33.228447 
L 201.688026 33.011644 
L 201.855482 32.533707 
L 201.967119 32.473377 
L 202.134575 32.152654 
L 202.190394 32.123421 
L 202.35785 30.501964 
L 203.864952 29.728714 
L 204.032408 29.406039 
L 204.702231 29.044159 
L 204.869687 24.540302 
L 205.595329 24.112197 
L 205.762784 22.487185 
L 205.986059 22.384396 
L 205.986059 22.384396 
" clip-path="url(#p2ef00d2b9e)" style="fill: none; stroke: #000000; stroke-linecap: square"/>
   </g>
   <g id="patch_3">
    <path d="M 30.216059 154.684396 
L 30.216059 16.084396 
" style="fill: none; stroke: #000000; stroke-width: 0.5; stroke-linejoin: miter; stroke-linecap: square"/>
   </g>
   <g id="patch_4">
    <path d="M 214.356059 154.684396 
L 214.356059 16.084396 
" style="fill: none; stroke: #000000; stroke-width: 0.5; stroke-linejoin: miter; stroke-linecap: square"/>
   </g>
   <g id="patch_5">
    <path d="M 30.216059 154.684396 
L 214.356059 154.684396 
" style="fill: none; stroke: #000000; stroke-width: 0.5; stroke-linejoin: miter; stroke-linecap: square"/>
   </g>
   <g id="patch_6">
    <path d="M 30.216059 16.084396 
L 214.356059 16.084396 
" style="fill: none; stroke: #000000; stroke-width: 0.5; stroke-linejoin: miter; stroke-linecap: square"/>
   </g>
   <g id="text_17">
    <!-- Miglior valore della carica -->
    <g transform="translate(71.54422 10.084396) scale(0.096 -0.096)">
     <defs>
      <path id="NimbusRomNo9L-Regu-4d" d="M 4314 3667 
L 4314 751 
C 4314 217 4237 134 3731 134 
L 3731 0 
L 5523 0 
L 5523 134 
C 5056 134 4966 223 4966 681 
L 4966 3536 
C 4966 3993 5050 4077 5523 4115 
L 5523 4237 
L 4250 4237 
L 2835 1004 
L 1357 4237 
L 90 4237 
L 90 4096 
C 614 4096 698 4019 698 3550 
L 698 943 
C 698 282 608 159 77 121 
L 77 0 
L 1581 0 
L 1581 134 
C 1088 134 979 282 979 931 
L 979 3520 
L 2586 0 
L 2675 0 
L 4314 3667 
z
" transform="scale(0.015625)"/>
      <path id="NimbusRomNo9L-Regu-67" d="M 3008 2496 
L 3008 2746 
L 2515 2746 
C 2387 2746 2291 2763 2163 2802 
L 2022 2847 
C 1850 2903 1677 2931 1510 2931 
C 915 2931 442 2467 442 1881 
C 442 1476 614 1230 1037 1018 
C 915 906 800 799 762 768 
C 550 588 467 463 467 338 
C 467 206 544 131 806 6 
C 352 -329 179 -543 179 -781 
C 179 -1124 678 -1408 1286 -1408 
C 1766 -1408 2266 -1238 2598 -962 
C 2842 -759 2950 -548 2950 -299 
C 2950 108 2650 384 2176 384 
L 1350 384 
C 1011 384 851 443 851 548 
C 851 678 1062 908 1235 960 
C 1293 953 1338 947 1357 947 
C 1478 934 1562 928 1600 928 
C 1837 928 2093 1026 2291 1203 
C 2502 1387 2598 1617 2598 1945 
C 2598 2135 2566 2286 2477 2496 
L 3008 2496 
z
M 941 -13 
C 1152 -58 1664 -96 1978 -96 
C 2560 -96 2771 -180 2771 -414 
C 2771 -791 2285 -1043 1562 -1043 
C 998 -1043 627 -855 627 -570 
C 627 -420 672 -336 941 -13 
z
M 973 2145 
C 973 2526 1152 2752 1446 2752 
C 1645 2752 1811 2642 1914 2449 
C 2029 2223 2106 1927 2106 1675 
C 2106 1314 1920 1088 1626 1088 
C 1242 1088 973 1507 973 2126 
L 973 2145 
z
" transform="scale(0.015625)"/>
      <path id="NimbusRomNo9L-Regu-6c" d="M 122 4000 
L 160 4000 
C 230 4000 307 4000 358 4000 
C 563 4000 627 3910 627 3610 
L 627 557 
C 627 211 538 128 134 96 
L 134 0 
L 1645 0 
L 1645 109 
C 1242 109 1165 173 1165 528 
L 1165 4371 
L 1139 4384 
C 806 4275 563 4211 122 4103 
L 122 4000 
z
" transform="scale(0.015625)"/>
      <path id="NimbusRomNo9L-Regu-6f" d="M 1600 2944 
C 768 2944 186 2330 186 1446 
C 186 582 781 -64 1587 -64 
C 2394 -64 3008 614 3008 1498 
C 3008 2336 2419 2944 1600 2944 
z
M 1517 2765 
C 2054 2765 2432 2150 2432 1274 
C 2432 550 2144 115 1664 115 
C 1414 115 1178 269 1043 525 
C 864 858 762 1306 762 1760 
C 762 2368 1062 2765 1517 2765 
z
" transform="scale(0.015625)"/>
      <path id="NimbusRomNo9L-Regu-76" d="M 3053 2854 
L 2163 2854 
L 2163 2758 
C 2368 2739 2464 2675 2464 2552 
C 2464 2488 2451 2424 2426 2359 
L 1792 695 
L 1139 2340 
C 1101 2431 1082 2520 1082 2578 
C 1082 2694 1152 2739 1376 2758 
L 1376 2854 
L 122 2854 
L 122 2752 
C 365 2752 410 2688 704 2024 
L 1472 175 
C 1485 137 1504 91 1523 40 
C 1562 -76 1600 -128 1638 -128 
C 1677 -128 1722 -44 1818 193 
L 2637 2257 
C 2822 2694 2861 2739 3053 2758 
L 3053 2854 
z
" transform="scale(0.015625)"/>
      <path id="NimbusRomNo9L-Regu-65" d="M 2611 1053 
C 2304 564 2029 378 1619 378 
C 1254 378 979 564 794 930 
C 678 1174 634 1386 621 1779 
L 2592 1779 
C 2541 2193 2477 2377 2317 2581 
C 2125 2811 1830 2944 1498 2944 
C 1178 2944 877 2829 634 2611 
C 333 2349 160 1894 160 1370 
C 160 486 621 -64 1357 -64 
C 1965 -64 2445 315 2714 1008 
L 2611 1053 
z
M 634 1984 
C 704 2479 922 2714 1312 2714 
C 1702 2714 1856 2535 1939 1984 
L 634 1984 
z
" transform="scale(0.015625)"/>
      <path id="NimbusRomNo9L-Regu-64" d="M 2202 -64 
L 3142 269 
L 3142 365 
C 3027 365 3014 365 2995 365 
C 2765 365 2714 435 2714 731 
L 2714 4364 
L 2682 4377 
C 2374 4268 2150 4204 1741 4096 
L 1741 3994 
C 1792 4000 1830 4000 1882 4000 
C 2118 4000 2176 3936 2176 3672 
L 2176 2669 
C 1933 2874 1760 2944 1504 2944 
C 768 2944 173 2221 173 1312 
C 173 493 653 -64 1357 -64 
C 1715 -64 1958 64 2176 365 
L 2176 -45 
L 2202 -64 
z
M 2176 653 
C 2176 608 2131 531 2067 461 
C 1952 333 1792 269 1606 269 
C 1075 269 723 781 723 1568 
C 723 2291 1037 2765 1523 2765 
C 1862 2765 2176 2464 2176 2125 
L 2176 653 
z
" transform="scale(0.015625)"/>
     </defs>
     <use xlink:href="#NimbusRomNo9L-Regu-4d" transform="scale(0.996264)"/>
     <use xlink:href="#NimbusRomNo9L-Regu-69" transform="translate(88.566907 0) scale(0.996264)"/>
     <use xlink:href="#NimbusRomNo9L-Regu-67" transform="translate(116.262076 0) scale(0.996264)"/>
     <use xlink:href="#NimbusRomNo9L-Regu-6c" transform="translate(166.075277 0) scale(0.996264)"/>
     <use xlink:href="#NimbusRomNo9L-Regu-69" transform="translate(193.770446 0) scale(0.996264)"/>
     <use xlink:href="#NimbusRomNo9L-Regu-6f" transform="translate(221.465616 0) scale(0.996264)"/>
     <use xlink:href="#NimbusRomNo9L-Regu-72" transform="translate(271.278816 0) scale(0.996264)"/>
     <use xlink:href="#NimbusRomNo9L-Regu-76" transform="translate(329.360646 0) scale(0.996264)"/>
     <use xlink:href="#NimbusRomNo9L-Regu-61" transform="translate(376.683217 0) scale(0.996264)"/>
     <use xlink:href="#NimbusRomNo9L-Regu-6c" transform="translate(420.916786 0) scale(0.996264)"/>
     <use xlink:href="#NimbusRomNo9L-Regu-6f" transform="translate(448.611956 0) scale(0.996264)"/>
     <use xlink:href="#NimbusRomNo9L-Regu-72" transform="translate(498.425156 0) scale(0.996264)"/>
     <use xlink:href="#NimbusRomNo9L-Regu-65" transform="translate(531.600386 0) scale(0.996264)"/>
     <use xlink:href="#NimbusRomNo9L-Regu-64" transform="translate(600.740555 0) scale(0.996264)"/>
     <use xlink:href="#NimbusRomNo9L-Regu-65" transform="translate(650.553755 0) scale(0.996264)"/>
     <use xlink:href="#NimbusRomNo9L-Regu-6c" transform="translate(694.787324 0) scale(0.996264)"/>
     <use xlink:href="#NimbusRomNo9L-Regu-6c" transform="translate(722.482494 0) scale(0.996264)"/>
     <use xlink:href="#NimbusRomNo9L-Regu-61" transform="translate(750.177663 0) scale(0.996264)"/>
     <use xlink:href="#NimbusRomNo9L-Regu-63" transform="translate(819.317832 0) scale(0.996264)"/>
     <use xlink:href="#NimbusRomNo9L-Regu-61" transform="translate(863.551401 0) scale(0.996264)"/>
     <use xlink:href="#NimbusRomNo9L-Regu-72" transform="translate(907.78497 0) scale(0.996264)"/>
     <use xlink:href="#NimbusRomNo9L-Regu-69" transform="translate(940.960199 0) scale(0.996264)"/>
     <use xlink:href="#NimbusRomNo9L-Regu-63" transform="translate(968.655369 0) scale(0.996264)"/>
     <use xlink:href="#NimbusRomNo9L-Regu-61" transform="translate(1012.888938 0) scale(0.996264)"/>
    </g>
   </g>
  </g>
 </g>
 <defs>
  <clipPath id="p2ef00d2b9e">
   <rect x="30.216059" y="16.084396" width="184.14" height="138.6"/>
  </clipPath>
 </defs>
</svg>
